<svg xmlns="http://www.w3.org/2000/svg" xmlns:inkscape="http://www.inkscape.org/namespaces/inkscape" width="11in" height="8.5in" viewBox="-0.21176470588235297 -1.05 1.423529411764706 1.1"><g inkscape:label="0-layer" inkscape:groupmode="layer"><path style="stroke-width: 0.004270588235294118; stroke: black;" fill="none" d="M 0.15384615384615383 -0.05555555555555555 L 0.07692307692307691 -0.0 L 0.0 -0.05555555555555555 L 0.0 -0.16666666666666666 M 0.30769230769230765 -0.05555555555555555 L 0.23076923076923075 -0.0 L 0.15384615384615383 -0.05555555555555555 L 0.15384615384615383 -0.16666666666666666 M 0.46153846153846145 -0.05555555555555555 L 0.3846153846153845 -0.0 L 0.30769230769230765 -0.05555555555555555 L 0.30769230769230765 -0.16666666666666666 M 0.6153846153846153 -0.05555555555555555 L 0.5384615384615384 -0.0 L 0.4615384615384615 -0.05555555555555555 L 0.4615384615384615 -0.16666666666666666 M 0.769230769230769 -0.05555555555555555 L 0.6923076923076922 -0.0 L 0.6153846153846153 -0.05555555555555555 L 0.6153846153846153 -0.16666666666666666 M 0.923076923076923 -0.05555555555555555 L 0.846153846153846 -0.0 L 0.769230769230769 -0.05555555555555555 L 0.769230769230769 -0.16666666666666666 M 0.23076923076923075 -0.2222222222222222 L 0.15384615384615383 -0.16666666666666666 L 0.07692307692307691 -0.2222222222222222 L 0.07692307692307691 -0.3333333333333333 M 0.3846153846153845 -0.2222222222222222 L 0.30769230769230765 -0.16666666666666666 L 0.23076923076923075 -0.2222222222222222 L 0.23076923076923075 -0.3333333333333333 M 0.5384615384615383 -0.2222222222222222 L 0.46153846153846145 -0.16666666666666666 L 0.3846153846153845 -0.2222222222222222 L 0.3846153846153845 -0.3333333333333333 M 0.6923076923076922 -0.2222222222222222 L 0.6153846153846153 -0.16666666666666666 L 0.5384615384615384 -0.2222222222222222 L 0.5384615384615384 -0.3333333333333333 M 0.846153846153846 -0.2222222222222222 L 0.769230769230769 -0.16666666666666666 L 0.6923076923076922 -0.2222222222222222 L 0.6923076923076922 -0.3333333333333333 M 1.0 -0.2222222222222222 L 0.923076923076923 -0.16666666666666666 L 0.846153846153846 -0.2222222222222222 L 0.846153846153846 -0.3333333333333333 M 0.15384615384615383 -0.3888888888888889 L 0.07692307692307691 -0.3333333333333333 L 0.0 -0.3888888888888889 L 0.0 -0.5 M 0.30769230769230765 -0.3888888888888889 L 0.23076923076923075 -0.3333333333333333 L 0.15384615384615383 -0.3888888888888889 L 0.15384615384615383 -0.5 M 0.46153846153846145 -0.3888888888888889 L 0.3846153846153845 -0.3333333333333333 L 0.30769230769230765 -0.3888888888888889 L 0.30769230769230765 -0.5 M 0.6153846153846153 -0.3888888888888889 L 0.5384615384615384 -0.3333333333333333 L 0.4615384615384615 -0.3888888888888889 L 0.4615384615384615 -0.5 M 0.769230769230769 -0.3888888888888889 L 0.6923076923076922 -0.3333333333333333 L 0.6153846153846153 -0.3888888888888889 L 0.6153846153846153 -0.5 M 0.923076923076923 -0.3888888888888889 L 0.846153846153846 -0.3333333333333333 L 0.769230769230769 -0.3888888888888889 L 0.769230769230769 -0.5 M 0.23076923076923075 -0.5555555555555556 L 0.15384615384615383 -0.5 L 0.07692307692307691 -0.5555555555555556 L 0.07692307692307691 -0.6666666666666666 M 0.3846153846153845 -0.5555555555555556 L 0.30769230769230765 -0.5 L 0.23076923076923075 -0.5555555555555556 L 0.23076923076923075 -0.6666666666666666 M 0.5384615384615383 -0.5555555555555556 L 0.46153846153846145 -0.5 L 0.3846153846153845 -0.5555555555555556 L 0.3846153846153845 -0.6666666666666666 M 0.6923076923076922 -0.5555555555555556 L 0.6153846153846153 -0.5 L 0.5384615384615384 -0.5555555555555556 L 0.5384615384615384 -0.6666666666666666 M 0.846153846153846 -0.5555555555555556 L 0.769230769230769 -0.5 L 0.6923076923076922 -0.5555555555555556 L 0.6923076923076922 -0.6666666666666666 M 1.0 -0.5555555555555556 L 0.923076923076923 -0.5 L 0.846153846153846 -0.5555555555555556 L 0.846153846153846 -0.6666666666666666 M 0.15384615384615383 -0.7222222222222222 L 0.07692307692307691 -0.6666666666666666 L 0.0 -0.7222222222222222 L 0.0 -0.8333333333333334 M 0.30769230769230765 -0.7222222222222222 L 0.23076923076923075 -0.6666666666666666 L 0.15384615384615383 -0.7222222222222222 L 0.15384615384615383 -0.8333333333333334 M 0.46153846153846145 -0.7222222222222222 L 0.3846153846153845 -0.6666666666666666 L 0.30769230769230765 -0.7222222222222222 L 0.30769230769230765 -0.8333333333333334 M 0.6153846153846153 -0.7222222222222222 L 0.5384615384615384 -0.6666666666666666 L 0.4615384615384615 -0.7222222222222222 L 0.4615384615384615 -0.8333333333333334 M 0.769230769230769 -0.7222222222222222 L 0.6923076923076922 -0.6666666666666666 L 0.6153846153846153 -0.7222222222222222 L 0.6153846153846153 -0.8333333333333334 M 0.923076923076923 -0.7222222222222222 L 0.846153846153846 -0.6666666666666666 L 0.769230769230769 -0.7222222222222222 L 0.769230769230769 -0.8333333333333334 M 0.23076923076923075 -0.8888888888888888 L 0.15384615384615383 -0.8333333333333334 L 0.07692307692307691 -0.8888888888888888 L 0.07692307692307691 -1.0 M 0.3846153846153845 -0.8888888888888888 L 0.30769230769230765 -0.8333333333333334 L 0.23076923076923075 -0.8888888888888888 L 0.23076923076923075 -1.0 M 0.5384615384615383 -0.8888888888888888 L 0.46153846153846145 -0.8333333333333334 L 0.3846153846153845 -0.8888888888888888 L 0.3846153846153845 -1.0 M 0.6923076923076922 -0.8888888888888888 L 0.6153846153846153 -0.8333333333333334 L 0.5384615384615384 -0.8888888888888888 L 0.5384615384615384 -1.0 M 0.846153846153846 -0.8888888888888888 L 0.769230769230769 -0.8333333333333334 L 0.6923076923076922 -0.8888888888888888 L 0.6923076923076922 -1.0 M 1.0 -0.8888888888888888 L 0.923076923076923 -0.8333333333333334 L 0.846153846153846 -0.8888888888888888 L 0.846153846153846 -1.0" /></g></svg>