<svg xmlns="http://www.w3.org/2000/svg" xmlns:inkscape="http://www.inkscape.org/namespaces/inkscape" width="8.5in" height="8.5in" viewBox="-1.6767396084929747 -3.4095707753679148 6.8191415507358295 6.8191415507358295"><g inkscape:label="0-layer" inkscape:groupmode="layer"><path style="stroke-width: 0.010228712326103744; stroke: black;" fill="none" d="M 1.0 1.0 L 0.9979866764718844 0.9365760803434355 L 0.9919548128307953 0.8734075464262507 L 0.9819286972627067 0.8107487556395898 L 0.9679487013963562 0.7488520128189208 L 0.9500711177409453 0.6879665543015129 L 0.9283679330160726 0.6283375443396725 L 0.9029265382866212 0.5702050879108282 L 0.8738493770697849 0.5138032638995313 L 0.8412535328311812 0.45935918254440244 L 0.8052702575310585 0.4070920709453595 L 0.766044443118978 0.35721239031346064 L 0.7237340381050702 0.3099209885178881 L 0.6785094115571322 0.2654082913424667 L 0.6305526670845224 0.22385353570824318 L 0.5800569095711983 0.18542404794966427 L 0.5272254676105025 0.1502745700504856 L 0.47227107477268254 0.11854663655241793 L 0.41541501300188644 0.09036800464548167 L 0.3568862215918719 0.06585213973489323 L 0.2969203753282747 0.045097758555926015 L 0.23575893550942728 0.028188431676458348 L 0.1736481776669302 0.015192246987791869 L 0.11083819990101088 0.006161535538745877 L 0.0475819158237424 0.0011326608169920371 L -0.01586596383480803 0.0001258723261249317 L -0.07924995685678855 0.0031452240480576155 L -0.14231483827328523 0.010178558119067316 L -0.20480666806519096 0.021197553785221368 L -0.2664738136900348 0.03615784144005785 L -0.32706796331742166 0.054999181285331544 L -0.3863451256931287 0.07764570589541864 L -0.4440666126057741 0.10400622570866414 L -0.5000000000000001 0.1339745962155614 L -0.5539200638661106 0.16743014536522882 L -0.6056096871376668 0.204238159469168 L -0.654860733945285 0.24425042564574162 L -0.7014748877063214 0.2873058286211372 L -0.7452644496757547 0.3332309994837084 L -0.7860530947427875 0.38184101377939494 L -0.8236765814298329 0.4329401361372296 L -0.8579834132349771 0.4863226084265937 L -0.8888354486549234 0.5417734782725895 L -0.9161084574320697 0.5990694645933864 L -0.9396926207859084 0.6579798566743316 L -0.9594929736144974 0.7182674431585704 L -0.9754297868854072 0.7796894672134597 L -0.9874388886763944 0.8419986040266506 L -0.9954719225730846 0.9049439566958171 L -0.9994965423831851 0.9682720665019323 L -0.9994965423831851 1.0317279334980678 L -0.9954719225730846 1.0950560433041832 L -0.9874388886763943 1.1580013959733502 L -0.975429786885407 1.2203105327865407 L -0.9594929736144974 1.2817325568414297 L -0.9396926207859084 1.3420201433256687 L -0.9161084574320694 1.4009305354066142 L -0.8888354486549233 1.4582265217274106 L -0.8579834132349772 1.513677391573406 L -0.8236765814298326 1.567059863862771 L -0.7860530947427874 1.6181589862206054 L -0.7452644496757546 1.6667690005162918 L -0.7014748877063213 1.7126941713788628 L -0.6548607339452845 1.7557495743542586 L -0.6056096871376667 1.7957618405308322 L -0.5539200638661105 1.8325698546347713 L -0.49999999999999967 1.8660254037844388 L -0.44406661260577396 1.895993774291336 L -0.38634512569312784 1.9223542941045817 L -0.3270679633174219 1.9450008187146683 L -0.26647381369003464 1.9638421585599422 L -0.20480666806519054 1.9788024462147789 L -0.14231483827328525 1.9898214418809328 L -0.0792499568567879 1.9968547759519424 L -0.01586596383480761 1.9998741276738752 L 0.04758191582374238 1.998867339183008 L 0.11083819990101086 1.9938384644612541 L 0.17364817766692997 1.9848077530122081 L 0.23575893550942748 1.9718115683235418 L 0.2969203753282749 1.9549022414440738 L 0.3568862215918725 1.9341478602651065 L 0.4154150130018868 1.9096319953545182 L 0.47227107477268293 1.8814533634475819 L 0.5272254676105024 1.8497254299495145 L 0.5800569095711979 1.814575952050336 L 0.6305526670845227 1.7761464642917566 L 0.6785094115571323 1.734591708657533 L 0.7237340381050708 1.6900790114821114 L 0.7660444431189783 1.6427876096865388 L 0.8052702575310589 1.5929079290546402 L 0.8412535328311812 1.5406408174555974 L 0.8738493770697848 1.4861967361004687 L 0.9029265382866214 1.429794912089171 L 0.9283679330160727 1.3716624556603272 L 0.9500711177409457 1.3120334456984861 L 0.9679487013963562 1.2511479871810793 L 0.9819286972627066 1.1892512443604106 L 0.9919548128307953 1.126592453573749 L 0.9979866764718844 1.0634239196565645 L 1.0 1.0000000000000002 M 1.0 -0.0 L 0.9979866764718844 -0.0634239196565645 L 0.9919548128307953 -0.12659245357374926 L 0.9819286972627067 -0.1892512443604102 L 0.9679487013963562 -0.2511479871810792 L 0.9500711177409453 -0.3120334456984871 L 0.9283679330160726 -0.3716624556603275 L 0.9029265382866212 -0.4297949120891717 L 0.8738493770697849 -0.4861967361004687 L 0.8412535328311812 -0.5406408174555976 L 0.8052702575310585 -0.5929079290546405 L 0.766044443118978 -0.6427876096865394 L 0.7237340381050702 -0.6900790114821119 L 0.6785094115571322 -0.7345917086575333 L 0.6305526670845224 -0.7761464642917568 L 0.5800569095711983 -0.8145759520503357 L 0.5272254676105025 -0.8497254299495144 L 0.47227107477268254 -0.8814533634475821 L 0.41541501300188644 -0.9096319953545183 L 0.3568862215918719 -0.9341478602651068 L 0.2969203753282747 -0.954902241444074 L 0.23575893550942728 -0.9718115683235417 L 0.1736481776669302 -0.9848077530122081 L 0.11083819990101088 -0.9938384644612541 L 0.0475819158237424 -0.998867339183008 L -0.01586596383480803 -0.9998741276738751 L -0.07924995685678855 -0.9968547759519424 L -0.14231483827328523 -0.9898214418809327 L -0.20480666806519096 -0.9788024462147786 L -0.2664738136900348 -0.9638421585599422 L -0.32706796331742166 -0.9450008187146685 L -0.3863451256931287 -0.9223542941045814 L -0.4440666126057741 -0.8959937742913359 L -0.5000000000000001 -0.8660254037844386 L -0.5539200638661106 -0.8325698546347712 L -0.6056096871376668 -0.795761840530832 L -0.654860733945285 -0.7557495743542584 L -0.7014748877063214 -0.7126941713788628 L -0.7452644496757547 -0.6667690005162916 L -0.7860530947427875 -0.6181589862206051 L -0.8236765814298329 -0.5670598638627704 L -0.8579834132349771 -0.5136773915734063 L -0.8888354486549234 -0.4582265217274105 L -0.9161084574320697 -0.4009305354066136 L -0.9396926207859084 -0.34202014332566844 L -0.9594929736144974 -0.2817325568414296 L -0.9754297868854072 -0.22031053278654036 L -0.9874388886763944 -0.15800139597334942 L -0.9954719225730846 -0.09505604330418288 L -0.9994965423831851 -0.031727933498067656 L -0.9994965423831851 0.03172793349806785 L -0.9954719225730846 0.09505604330418307 L -0.9874388886763943 0.15800139597335008 L -0.975429786885407 0.22031053278654059 L -0.9594929736144974 0.28173255684142984 L -0.9396926207859084 0.34202014332566866 L -0.9161084574320694 0.4009305354066142 L -0.8888354486549233 0.4582265217274107 L -0.8579834132349772 0.5136773915734061 L -0.8236765814298326 0.567059863862771 L -0.7860530947427874 0.6181589862206053 L -0.7452644496757546 0.6667690005162918 L -0.7014748877063213 0.7126941713788628 L -0.6548607339452845 0.7557495743542587 L -0.6056096871376667 0.7957618405308321 L -0.5539200638661105 0.8325698546347713 L -0.49999999999999967 0.8660254037844388 L -0.44406661260577396 0.895993774291336 L -0.38634512569312784 0.9223542941045817 L -0.3270679633174219 0.9450008187146683 L -0.26647381369003464 0.9638421585599422 L -0.20480666806519054 0.9788024462147787 L -0.14231483827328525 0.9898214418809327 L -0.0792499568567879 0.9968547759519424 L -0.01586596383480761 0.9998741276738751 L 0.04758191582374238 0.998867339183008 L 0.11083819990101086 0.9938384644612541 L 0.17364817766692997 0.9848077530122081 L 0.23575893550942748 0.9718115683235417 L 0.2969203753282749 0.9549022414440739 L 0.3568862215918725 0.9341478602651064 L 0.4154150130018868 0.9096319953545182 L 0.47227107477268293 0.881453363447582 L 0.5272254676105024 0.8497254299495144 L 0.5800569095711979 0.814575952050336 L 0.6305526670845227 0.7761464642917566 L 0.6785094115571323 0.7345917086575331 L 0.7237340381050708 0.6900790114821114 L 0.7660444431189783 0.6427876096865389 L 0.8052702575310589 0.5929079290546402 L 0.8412535328311812 0.5406408174555974 L 0.8738493770697848 0.48619673610046876 L 0.9029265382866214 0.42979491208917114 L 0.9283679330160727 0.37166245566032724 L 0.9500711177409457 0.3120334456984862 L 0.9679487013963562 0.25114798718107934 L 0.9819286972627066 0.18925124436041063 L 0.9919548128307953 0.12659245357374904 L 0.9979866764718844 0.06342391965656452 L 1.0 2.4492935982947064e-16 M 1.0 -1.0 L 0.9979866764718844 -1.0634239196565645 L 0.9919548128307953 -1.1265924535737493 L 0.9819286972627067 -1.1892512443604102 L 0.9679487013963562 -1.2511479871810791 L 0.9500711177409453 -1.312033445698487 L 0.9283679330160726 -1.3716624556603274 L 0.9029265382866212 -1.4297949120891718 L 0.8738493770697849 -1.4861967361004687 L 0.8412535328311812 -1.5406408174555977 L 0.8052702575310585 -1.5929079290546406 L 0.766044443118978 -1.6427876096865393 L 0.7237340381050702 -1.690079011482112 L 0.6785094115571322 -1.7345917086575333 L 0.6305526670845224 -1.7761464642917568 L 0.5800569095711983 -1.8145759520503357 L 0.5272254676105025 -1.8497254299495145 L 0.47227107477268254 -1.881453363447582 L 0.41541501300188644 -1.9096319953545184 L 0.3568862215918719 -1.9341478602651068 L 0.2969203753282747 -1.954902241444074 L 0.23575893550942728 -1.9718115683235418 L 0.1736481776669302 -1.9848077530122081 L 0.11083819990101088 -1.9938384644612541 L 0.0475819158237424 -1.998867339183008 L -0.01586596383480803 -1.9998741276738752 L -0.07924995685678855 -1.9968547759519424 L -0.14231483827328523 -1.9898214418809328 L -0.20480666806519096 -1.9788024462147786 L -0.2664738136900348 -1.9638421585599422 L -0.32706796331742166 -1.9450008187146683 L -0.3863451256931287 -1.9223542941045815 L -0.4440666126057741 -1.8959937742913358 L -0.5000000000000001 -1.8660254037844386 L -0.5539200638661106 -1.8325698546347713 L -0.6056096871376668 -1.795761840530832 L -0.654860733945285 -1.7557495743542584 L -0.7014748877063214 -1.7126941713788628 L -0.7452644496757547 -1.6667690005162916 L -0.7860530947427875 -1.618158986220605 L -0.8236765814298329 -1.5670598638627704 L -0.8579834132349771 -1.5136773915734063 L -0.8888354486549234 -1.4582265217274104 L -0.9161084574320697 -1.4009305354066135 L -0.9396926207859084 -1.3420201433256684 L -0.9594929736144974 -1.2817325568414297 L -0.9754297868854072 -1.2203105327865404 L -0.9874388886763944 -1.1580013959733495 L -0.9954719225730846 -1.095056043304183 L -0.9994965423831851 -1.0317279334980676 L -0.9994965423831851 -0.9682720665019322 L -0.9954719225730846 -0.904943956695817 L -0.9874388886763943 -0.8419986040266499 L -0.975429786885407 -0.7796894672134594 L -0.9594929736144974 -0.7182674431585702 L -0.9396926207859084 -0.6579798566743313 L -0.9161084574320694 -0.5990694645933858 L -0.8888354486549233 -0.5417734782725894 L -0.8579834132349772 -0.4863226084265939 L -0.8236765814298326 -0.43294013613722904 L -0.7860530947427874 -0.3818410137793947 L -0.7452644496757546 -0.33323099948370816 L -0.7014748877063213 -0.2873058286211372 L -0.6548607339452845 -0.2442504256457413 L -0.6056096871376667 -0.2042381594691679 L -0.5539200638661105 -0.1674301453652287 L -0.49999999999999967 -0.13397459621556118 L -0.44406661260577396 -0.10400622570866402 L -0.38634512569312784 -0.0776457058954183 L -0.3270679633174219 -0.054999181285331655 L -0.26647381369003464 -0.03615784144005785 L -0.20480666806519054 -0.021197553785221257 L -0.14231483827328525 -0.010178558119067316 L -0.0792499568567879 -0.0031452240480576155 L -0.01586596383480761 -0.0001258723261249317 L 0.04758191582374238 -0.0011326608169920371 L 0.11083819990101086 -0.006161535538745877 L 0.17364817766692997 -0.015192246987791869 L 0.23575893550942748 -0.028188431676458348 L 0.2969203753282749 -0.045097758555926126 L 0.3568862215918725 -0.06585213973489357 L 0.4154150130018868 -0.09036800464548178 L 0.47227107477268293 -0.11854663655241804 L 0.5272254676105024 -0.1502745700504856 L 0.5800569095711979 -0.18542404794966405 L 0.6305526670845227 -0.2238535357082434 L 0.6785094115571323 -0.2654082913424669 L 0.7237340381050708 -0.30992098851788863 L 0.7660444431189783 -0.3572123903134611 L 0.8052702575310589 -0.4070920709453598 L 0.8412535328311812 -0.45935918254440256 L 0.8738493770697848 -0.5138032638995312 L 0.9029265382866214 -0.5702050879108289 L 0.9283679330160727 -0.6283375443396728 L 0.9500711177409457 -0.6879665543015139 L 0.9679487013963562 -0.7488520128189207 L 0.9819286972627066 -0.8107487556395894 L 0.9919548128307953 -0.873407546426251 L 0.9979866764718844 -0.9365760803434355 L 1.0 -0.9999999999999998 M 1.8660254037844386 1.5 L 1.8640120802563231 1.4365760803434355 L 1.857980216615234 1.3734075464262507 L 1.8479541010471454 1.3107487556395898 L 1.8339741051807947 1.2488520128189209 L 1.816096521525384 1.187966554301513 L 1.7943933368005112 1.1283375443396726 L 1.7689519420710598 1.0702050879108282 L 1.7398747808542234 1.0138032638995313 L 1.7072789366156198 0.9593591825444024 L 1.6712956613154972 0.9070920709453595 L 1.6320698469034167 0.8572123903134606 L 1.589759441889509 0.8099209885178881 L 1.5445348153415708 0.7654082913424667 L 1.4965780708689609 0.7238535357082432 L 1.4460823133556369 0.6854240479496643 L 1.3932508713949412 0.6502745700504856 L 1.3382964785571212 0.6185466365524179 L 1.281440416786325 0.5903680046454817 L 1.2229116253763106 0.5658521397348932 L 1.1629457791127134 0.545097758555926 L 1.1017843392938658 0.5281884316764583 L 1.039673581451369 0.5151922469877919 L 0.9768636036854494 0.5061615355387459 L 0.913607319608181 0.501132660816992 L 0.8501594399496306 0.5001258723261249 L 0.78677544692765 0.5031452240480576 L 0.7237105655111533 0.5101785581190673 L 0.6612187357192476 0.5211975537852214 L 0.5995515900944037 0.5361578414400578 L 0.538957440467017 0.5549991812853315 L 0.4796802780913099 0.5776457058954186 L 0.42195879117866447 0.6040062257086641 L 0.3660254037844385 0.6339745962155614 L 0.312105339918328 0.6674301453652288 L 0.26041571664677177 0.704238159469168 L 0.2111646698391536 0.7442504256457416 L 0.16455051607811721 0.7873058286211372 L 0.12076095410868393 0.8332309994837084 L 0.07997230904165109 0.8818410137793949 L 0.042348822354605686 0.9329401361372296 L 0.00804199054946153 0.9863226084265937 L -0.02281004487048477 1.0417734782725896 L -0.050083053647631104 1.0990694645933865 L -0.07366721700146983 1.1579798566743316 L -0.09346756983005877 1.2182674431585703 L -0.10940438310096856 1.2796894672134596 L -0.1214134848919558 1.3419986040266505 L -0.129446518788646 1.404943956695817 L -0.13347113859874649 1.4682720665019324 L -0.13347113859874649 1.5317279334980678 L -0.129446518788646 1.5950560433041832 L -0.12141348489195569 1.6580013959733502 L -0.10940438310096845 1.7203105327865407 L -0.09346756983005877 1.7817325568414297 L -0.07366721700146983 1.8420201433256687 L -0.05008305364763077 1.9009305354066142 L -0.022810044870484658 1.9582265217274106 L 0.00804199054946142 2.013677391573406 L 0.04234882235460602 2.067059863862771 L 0.0799723090416512 2.1181589862206054 L 0.12076095410868404 2.166769000516292 L 0.16455051607811733 2.212694171378863 L 0.21116466983915405 2.2557495743542586 L 0.2604157166467719 2.295761840530832 L 0.3121053399183281 2.3325698546347713 L 0.36602540378443893 2.366025403784439 L 0.42195879117866464 2.3959937742913358 L 0.47968027809131075 2.422354294104582 L 0.5389574404670168 2.4450008187146683 L 0.599551590094404 2.463842158559942 L 0.661218735719248 2.478802446214779 L 0.7237105655111533 2.489821441880933 L 0.7867754469276507 2.4968547759519426 L 0.850159439949631 2.499874127673875 L 0.913607319608181 2.498867339183008 L 0.9768636036854494 2.493838464461254 L 1.0396735814513685 2.484807753012208 L 1.101784339293866 2.4718115683235418 L 1.1629457791127136 2.4549022414440738 L 1.222911625376311 2.4341478602651065 L 1.2814404167863254 2.409631995354518 L 1.3382964785571216 2.381453363447582 L 1.393250871394941 2.3497254299495145 L 1.4460823133556366 2.314575952050336 L 1.4965780708689613 2.276146464291757 L 1.5445348153415708 2.234591708657533 L 1.5897594418895094 2.190079011482111 L 1.632069846903417 2.142787609686539 L 1.6712956613154974 2.09290792905464 L 1.7072789366156198 2.0406408174555972 L 1.7398747808542234 1.9861967361004687 L 1.76895194207106 1.929794912089171 L 1.7943933368005114 1.8716624556603272 L 1.8160965215253841 1.8120334456984861 L 1.8339741051807947 1.7511479871810793 L 1.8479541010471452 1.6892512443604106 L 1.857980216615234 1.626592453573749 L 1.8640120802563231 1.5634239196565645 L 1.8660254037844386 1.5000000000000002 M 1.8660254037844386 0.5 L 1.8640120802563231 0.4365760803434355 L 1.857980216615234 0.37340754642625074 L 1.8479541010471454 0.3107487556395898 L 1.8339741051807947 0.24885201281892078 L 1.816096521525384 0.18796655430151288 L 1.7943933368005112 0.12833754433967248 L 1.7689519420710598 0.0702050879108283 L 1.7398747808542234 0.013803263899531293 L 1.7072789366156198 -0.040640817455597555 L 1.6712956613154972 -0.09290792905464051 L 1.6320698469034167 -0.14278760968653936 L 1.589759441889509 -0.19007901148211193 L 1.5445348153415708 -0.23459170865753332 L 1.4965780708689609 -0.2761464642917568 L 1.4460823133556369 -0.3145759520503357 L 1.3932508713949412 -0.3497254299495144 L 1.3382964785571212 -0.3814533634475821 L 1.281440416786325 -0.40963199535451833 L 1.2229116253763106 -0.43414786026510677 L 1.1629457791127134 -0.454902241444074 L 1.1017843392938658 -0.47181156832354165 L 1.039673581451369 -0.48480775301220813 L 0.9768636036854494 -0.4938384644612541 L 0.913607319608181 -0.49886733918300796 L 0.8501594399496306 -0.49987412767387507 L 0.78677544692765 -0.4968547759519424 L 0.7237105655111533 -0.4898214418809327 L 0.6612187357192476 -0.47880244621477863 L 0.5995515900944037 -0.46384215855994215 L 0.538957440467017 -0.44500081871466846 L 0.4796802780913099 -0.42235429410458136 L 0.42195879117866447 -0.39599377429133586 L 0.3660254037844385 -0.3660254037844386 L 0.312105339918328 -0.3325698546347712 L 0.26041571664677177 -0.295761840530832 L 0.2111646698391536 -0.2557495743542584 L 0.16455051607811721 -0.21269417137886282 L 0.12076095410868393 -0.16676900051629162 L 0.07997230904165109 -0.11815898622060506 L 0.042348822354605686 -0.06705986386277041 L 0.00804199054946153 -0.013677391573406306 L -0.02281004487048477 0.04177347827258948 L -0.050083053647631104 0.09906946459338639 L -0.07366721700146983 0.15797985667433156 L -0.09346756983005877 0.21826744315857038 L -0.10940438310096856 0.27968946721345966 L -0.1214134848919558 0.3419986040266506 L -0.129446518788646 0.4049439566958171 L -0.13347113859874649 0.4682720665019323 L -0.13347113859874649 0.5317279334980678 L -0.129446518788646 0.595056043304183 L -0.12141348489195569 0.6580013959733501 L -0.10940438310096845 0.7203105327865406 L -0.09346756983005877 0.7817325568414298 L -0.07366721700146983 0.8420201433256687 L -0.05008305364763077 0.9009305354066142 L -0.022810044870484658 0.9582265217274106 L 0.00804199054946142 1.013677391573406 L 0.04234882235460602 1.067059863862771 L 0.0799723090416512 1.1181589862206054 L 0.12076095410868404 1.1667690005162918 L 0.16455051607811733 1.2126941713788628 L 0.21116466983915405 1.2557495743542586 L 0.2604157166467719 1.2957618405308322 L 0.3121053399183281 1.3325698546347713 L 0.36602540378443893 1.3660254037844388 L 0.42195879117866464 1.395993774291336 L 0.47968027809131075 1.4223542941045817 L 0.5389574404670168 1.4450008187146683 L 0.599551590094404 1.4638421585599422 L 0.661218735719248 1.4788024462147789 L 0.7237105655111533 1.4898214418809328 L 0.7867754469276507 1.4968547759519424 L 0.850159439949631 1.4998741276738752 L 0.913607319608181 1.498867339183008 L 0.9768636036854494 1.4938384644612541 L 1.0396735814513685 1.4848077530122081 L 1.101784339293866 1.4718115683235418 L 1.1629457791127136 1.4549022414440738 L 1.222911625376311 1.4341478602651065 L 1.2814404167863254 1.4096319953545182 L 1.3382964785571216 1.3814533634475819 L 1.393250871394941 1.3497254299495145 L 1.4460823133556366 1.314575952050336 L 1.4965780708689613 1.2761464642917566 L 1.5445348153415708 1.234591708657533 L 1.5897594418895094 1.1900790114821114 L 1.632069846903417 1.1427876096865388 L 1.6712956613154974 1.0929079290546402 L 1.7072789366156198 1.0406408174555974 L 1.7398747808542234 0.9861967361004688 L 1.76895194207106 0.9297949120891711 L 1.7943933368005114 0.8716624556603272 L 1.8160965215253841 0.8120334456984861 L 1.8339741051807947 0.7511479871810793 L 1.8479541010471452 0.6892512443604106 L 1.857980216615234 0.626592453573749 L 1.8640120802563231 0.5634239196565645 L 1.8660254037844386 0.5000000000000002 M 1.8660254037844386 -0.5 L 1.8640120802563231 -0.5634239196565645 L 1.857980216615234 -0.6265924535737493 L 1.8479541010471454 -0.6892512443604102 L 1.8339741051807947 -0.7511479871810792 L 1.816096521525384 -0.8120334456984871 L 1.7943933368005112 -0.8716624556603275 L 1.7689519420710598 -0.9297949120891718 L 1.7398747808542234 -0.9861967361004687 L 1.7072789366156198 -1.0406408174555977 L 1.6712956613154972 -1.0929079290546406 L 1.6320698469034167 -1.1427876096865393 L 1.589759441889509 -1.190079011482112 L 1.5445348153415708 -1.2345917086575333 L 1.4965780708689609 -1.2761464642917568 L 1.4460823133556369 -1.3145759520503357 L 1.3932508713949412 -1.3497254299495145 L 1.3382964785571212 -1.381453363447582 L 1.281440416786325 -1.4096319953545184 L 1.2229116253763106 -1.4341478602651068 L 1.1629457791127134 -1.454902241444074 L 1.1017843392938658 -1.4718115683235418 L 1.039673581451369 -1.4848077530122081 L 0.9768636036854494 -1.4938384644612541 L 0.913607319608181 -1.498867339183008 L 0.8501594399496306 -1.4998741276738752 L 0.78677544692765 -1.4968547759519424 L 0.7237105655111533 -1.4898214418809328 L 0.6612187357192476 -1.4788024462147786 L 0.5995515900944037 -1.4638421585599422 L 0.538957440467017 -1.4450008187146683 L 0.4796802780913099 -1.4223542941045815 L 0.42195879117866447 -1.3959937742913358 L 0.3660254037844385 -1.3660254037844386 L 0.312105339918328 -1.3325698546347713 L 0.26041571664677177 -1.295761840530832 L 0.2111646698391536 -1.2557495743542584 L 0.16455051607811721 -1.2126941713788628 L 0.12076095410868393 -1.1667690005162916 L 0.07997230904165109 -1.118158986220605 L 0.042348822354605686 -1.0670598638627704 L 0.00804199054946153 -1.0136773915734063 L -0.02281004487048477 -0.9582265217274105 L -0.050083053647631104 -0.9009305354066136 L -0.07366721700146983 -0.8420201433256684 L -0.09346756983005877 -0.7817325568414296 L -0.10940438310096856 -0.7203105327865403 L -0.1214134848919558 -0.6580013959733494 L -0.129446518788646 -0.5950560433041829 L -0.13347113859874649 -0.5317279334980677 L -0.13347113859874649 -0.46827206650193215 L -0.129446518788646 -0.40494395669581695 L -0.12141348489195569 -0.34199860402664994 L -0.10940438310096845 -0.27968946721345944 L -0.09346756983005877 -0.21826744315857016 L -0.07366721700146983 -0.15797985667433134 L -0.05008305364763077 -0.09906946459338578 L -0.022810044870484658 -0.041773478272589315 L 0.00804199054946142 0.013677391573406084 L 0.04234882235460602 0.06705986386277096 L 0.0799723090416512 0.11815898622060528 L 0.12076095410868404 0.16676900051629184 L 0.16455051607811733 0.21269417137886282 L 0.21116466983915405 0.2557495743542587 L 0.2604157166467719 0.2957618405308321 L 0.3121053399183281 0.3325698546347713 L 0.36602540378443893 0.3660254037844388 L 0.42195879117866464 0.395993774291336 L 0.47968027809131075 0.4223542941045817 L 0.5389574404670168 0.44500081871466834 L 0.599551590094404 0.46384215855994215 L 0.661218735719248 0.47880244621477874 L 0.7237105655111533 0.4898214418809327 L 0.7867754469276507 0.4968547759519424 L 0.850159439949631 0.49987412767387507 L 0.913607319608181 0.49886733918300796 L 0.9768636036854494 0.4938384644612541 L 1.0396735814513685 0.48480775301220813 L 1.101784339293866 0.47181156832354165 L 1.1629457791127136 0.4549022414440739 L 1.222911625376311 0.43414786026510643 L 1.2814404167863254 0.4096319953545182 L 1.3382964785571216 0.38145336344758196 L 1.393250871394941 0.3497254299495144 L 1.4460823133556366 0.31457595205033595 L 1.4965780708689613 0.2761464642917566 L 1.5445348153415708 0.2345917086575331 L 1.5897594418895094 0.19007901148211137 L 1.632069846903417 0.14278760968653892 L 1.6712956613154974 0.09290792905464018 L 1.7072789366156198 0.040640817455597444 L 1.7398747808542234 -0.013803263899531237 L 1.76895194207106 -0.07020508791082886 L 1.7943933368005114 -0.12833754433967276 L 1.8160965215253841 -0.18796655430151382 L 1.8339741051807947 -0.24885201281892066 L 1.8479541010471452 -0.31074875563958937 L 1.857980216615234 -0.37340754642625096 L 1.8640120802563231 -0.4365760803434355 L 1.8660254037844386 -0.4999999999999998 M 1.8660254037844386 -1.5 L 1.8640120802563231 -1.5634239196565645 L 1.857980216615234 -1.6265924535737493 L 1.8479541010471454 -1.6892512443604102 L 1.8339741051807947 -1.7511479871810791 L 1.816096521525384 -1.812033445698487 L 1.7943933368005112 -1.8716624556603274 L 1.7689519420710598 -1.9297949120891718 L 1.7398747808542234 -1.9861967361004687 L 1.7072789366156198 -2.0406408174555977 L 1.6712956613154972 -2.0929079290546406 L 1.6320698469034167 -2.1427876096865393 L 1.589759441889509 -2.190079011482112 L 1.5445348153415708 -2.2345917086575335 L 1.4965780708689609 -2.276146464291757 L 1.4460823133556369 -2.314575952050336 L 1.3932508713949412 -2.3497254299495145 L 1.3382964785571212 -2.381453363447582 L 1.281440416786325 -2.4096319953545184 L 1.2229116253763106 -2.4341478602651065 L 1.1629457791127134 -2.454902241444074 L 1.1017843392938658 -2.4718115683235418 L 1.039673581451369 -2.484807753012208 L 0.9768636036854494 -2.493838464461254 L 0.913607319608181 -2.498867339183008 L 0.8501594399496306 -2.499874127673875 L 0.78677544692765 -2.4968547759519426 L 0.7237105655111533 -2.489821441880933 L 0.6612187357192476 -2.478802446214779 L 0.5995515900944037 -2.463842158559942 L 0.538957440467017 -2.4450008187146683 L 0.4796802780913099 -2.4223542941045815 L 0.42195879117866447 -2.3959937742913358 L 0.3660254037844385 -2.3660254037844384 L 0.312105339918328 -2.3325698546347713 L 0.26041571664677177 -2.295761840530832 L 0.2111646698391536 -2.255749574354258 L 0.16455051607811721 -2.212694171378863 L 0.12076095410868393 -2.1667690005162914 L 0.07997230904165109 -2.118158986220605 L 0.042348822354605686 -2.06705986386277 L 0.00804199054946153 -2.013677391573406 L -0.02281004487048477 -1.9582265217274104 L -0.050083053647631104 -1.9009305354066135 L -0.07366721700146983 -1.8420201433256684 L -0.09346756983005877 -1.7817325568414297 L -0.10940438310096856 -1.7203105327865404 L -0.1214134848919558 -1.6580013959733495 L -0.129446518788646 -1.595056043304183 L -0.13347113859874649 -1.5317279334980676 L -0.13347113859874649 -1.4682720665019322 L -0.129446518788646 -1.4049439566958168 L -0.12141348489195569 -1.3419986040266498 L -0.10940438310096845 -1.2796894672134593 L -0.09346756983005877 -1.2182674431585703 L -0.07366721700146983 -1.1579798566743313 L -0.05008305364763077 -1.0990694645933858 L -0.022810044870484658 -1.0417734782725894 L 0.00804199054946142 -0.9863226084265939 L 0.04234882235460602 -0.932940136137229 L 0.0799723090416512 -0.8818410137793947 L 0.12076095410868404 -0.8332309994837082 L 0.16455051607811733 -0.7873058286211372 L 0.21116466983915405 -0.7442504256457413 L 0.2604157166467719 -0.7042381594691679 L 0.3121053399183281 -0.6674301453652287 L 0.36602540378443893 -0.6339745962155612 L 0.42195879117866464 -0.604006225708664 L 0.47968027809131075 -0.5776457058954183 L 0.5389574404670168 -0.5549991812853317 L 0.599551590094404 -0.5361578414400578 L 0.661218735719248 -0.5211975537852213 L 0.7237105655111533 -0.5101785581190673 L 0.7867754469276507 -0.5031452240480576 L 0.850159439949631 -0.5001258723261249 L 0.913607319608181 -0.501132660816992 L 0.9768636036854494 -0.5061615355387459 L 1.0396735814513685 -0.5151922469877919 L 1.101784339293866 -0.5281884316764583 L 1.1629457791127136 -0.5450977585559261 L 1.222911625376311 -0.5658521397348936 L 1.2814404167863254 -0.5903680046454818 L 1.3382964785571216 -0.618546636552418 L 1.393250871394941 -0.6502745700504856 L 1.4460823133556366 -0.685424047949664 L 1.4965780708689613 -0.7238535357082434 L 1.5445348153415708 -0.7654082913424669 L 1.5897594418895094 -0.8099209885178886 L 1.632069846903417 -0.8572123903134611 L 1.6712956613154974 -0.9070920709453598 L 1.7072789366156198 -0.9593591825444026 L 1.7398747808542234 -1.0138032638995313 L 1.76895194207106 -1.070205087910829 L 1.7943933368005114 -1.1283375443396728 L 1.8160965215253841 -1.1879665543015139 L 1.8339741051807947 -1.2488520128189207 L 1.8479541010471452 -1.3107487556395894 L 1.857980216615234 -1.373407546426251 L 1.8640120802563231 -1.4365760803434355 L 1.8660254037844386 -1.4999999999999998 M 2.732050807568877 2.0 L 2.7300374840407615 1.9365760803434355 L 2.7240056203996725 1.8734075464262507 L 2.713979504831584 1.8107487556395898 L 2.6999995089652336 1.7488520128189209 L 2.6821219253098225 1.687966554301513 L 2.6604187405849498 1.6283375443396726 L 2.634977345855498 1.5702050879108282 L 2.6059001846386622 1.5138032638995313 L 2.5733043404000586 1.4593591825444023 L 2.5373210650999356 1.4070920709453594 L 2.498095250687855 1.3572123903134607 L 2.4557848456739473 1.309920988517888 L 2.410560219126009 1.2654082913424667 L 2.3626034746533997 1.2238535357082432 L 2.3121077171400755 1.1854240479496643 L 2.2592762751793796 1.1502745700504855 L 2.2043218823415596 1.118546636552418 L 2.1474658205707637 1.0903680046454816 L 2.088937029160749 1.0658521397348932 L 2.028971182897152 1.045097758555926 L 1.9678097430783046 1.0281884316764582 L 1.9056989852358073 1.0151922469877919 L 1.842889007469888 1.0061615355387459 L 1.7796327233926197 1.001132660816992 L 1.7161848437340692 1.0001258723261248 L 1.6528008507120886 1.0031452240480576 L 1.589735969295592 1.0101785581190672 L 1.5272441395036862 1.0211975537852214 L 1.4655769938788423 1.0361578414400578 L 1.4049828442514556 1.0549991812853317 L 1.3457056818757485 1.0776457058954185 L 1.287984194963103 1.1040062257086642 L 1.2320508075688772 1.1339745962155614 L 1.1781307437027666 1.1674301453652287 L 1.1264411204312104 1.204238159469168 L 1.0771900736235922 1.2442504256457416 L 1.0305759198625557 1.2873058286211372 L 0.9867863578931225 1.3332309994837084 L 0.9459977128260897 1.381841013779395 L 0.9083742261390443 1.4329401361372296 L 0.8740673943339001 1.4863226084265937 L 0.8432153589139538 1.5417734782725896 L 0.8159423501368075 1.5990694645933865 L 0.7923581867829688 1.6579798566743316 L 0.7725578339543798 1.7182674431585703 L 0.75662102068347 1.7796894672134596 L 0.7446119188924828 1.8419986040266505 L 0.7365788849957926 1.904943956695817 L 0.7325542651856921 1.9682720665019324 L 0.7325542651856921 2.031727933498068 L 0.7365788849957926 2.095056043304183 L 0.7446119188924829 2.15800139597335 L 0.7566210206834701 2.2203105327865407 L 0.7725578339543798 2.2817325568414297 L 0.7923581867829688 2.3420201433256684 L 0.8159423501368078 2.4009305354066144 L 0.8432153589139539 2.458226521727411 L 0.8740673943339 2.513677391573406 L 0.9083742261390446 2.567059863862771 L 0.9459977128260898 2.6181589862206054 L 0.9867863578931226 2.666769000516292 L 1.030575919862556 2.712694171378863 L 1.0771900736235926 2.7557495743542586 L 1.1264411204312106 2.795761840530832 L 1.1781307437027668 2.8325698546347713 L 1.2320508075688776 2.866025403784439 L 1.2879841949631032 2.8959937742913358 L 1.3457056818757493 2.922354294104582 L 1.4049828442514554 2.9450008187146683 L 1.4655769938788425 2.963842158559942 L 1.5272441395036866 2.978802446214779 L 1.589735969295592 2.989821441880933 L 1.6528008507120893 2.9968547759519426 L 1.7161848437340697 2.999874127673875 L 1.7796327233926195 2.998867339183008 L 1.842889007469888 2.993838464461254 L 1.9056989852358073 2.984807753012208 L 1.9678097430783046 2.9718115683235418 L 2.028971182897152 2.9549022414440738 L 2.08893702916075 2.9341478602651065 L 2.147465820570764 2.909631995354518 L 2.20432188234156 2.881453363447582 L 2.2592762751793796 2.8497254299495145 L 2.312107717140075 2.814575952050336 L 2.3626034746534 2.776146464291757 L 2.4105602191260096 2.734591708657533 L 2.455784845673948 2.690079011482111 L 2.4980952506878555 2.642787609686539 L 2.537321065099936 2.59290792905464 L 2.5733043404000586 2.5406408174555972 L 2.605900184638662 2.4861967361004687 L 2.6349773458554986 2.429794912089171 L 2.6604187405849498 2.3716624556603274 L 2.682121925309823 2.312033445698486 L 2.6999995089652336 2.2511479871810796 L 2.713979504831584 2.1892512443604106 L 2.7240056203996725 2.126592453573749 L 2.7300374840407615 2.0634239196565645 L 2.732050807568877 2.0000000000000004 M 2.732050807568877 1.0 L 2.7300374840407615 0.9365760803434355 L 2.7240056203996725 0.8734075464262507 L 2.713979504831584 0.8107487556395898 L 2.6999995089652336 0.7488520128189208 L 2.6821219253098225 0.6879665543015129 L 2.6604187405849498 0.6283375443396725 L 2.634977345855498 0.5702050879108282 L 2.6059001846386622 0.5138032638995313 L 2.5733043404000586 0.45935918254440244 L 2.5373210650999356 0.4070920709453595 L 2.498095250687855 0.35721239031346064 L 2.4557848456739473 0.3099209885178881 L 2.410560219126009 0.2654082913424667 L 2.3626034746533997 0.22385353570824318 L 2.3121077171400755 0.18542404794966427 L 2.2592762751793796 0.1502745700504856 L 2.2043218823415596 0.11854663655241793 L 2.1474658205707637 0.09036800464548167 L 2.088937029160749 0.06585213973489323 L 2.028971182897152 0.045097758555926015 L 1.9678097430783046 0.028188431676458348 L 1.9056989852358073 0.015192246987791869 L 1.842889007469888 0.006161535538745877 L 1.7796327233926197 0.0011326608169920371 L 1.7161848437340692 0.0001258723261249317 L 1.6528008507120886 0.0031452240480576155 L 1.589735969295592 0.010178558119067316 L 1.5272441395036862 0.021197553785221368 L 1.4655769938788423 0.03615784144005785 L 1.4049828442514556 0.054999181285331544 L 1.3457056818757485 0.07764570589541864 L 1.287984194963103 0.10400622570866414 L 1.2320508075688772 0.1339745962155614 L 1.1781307437027666 0.16743014536522882 L 1.1264411204312104 0.204238159469168 L 1.0771900736235922 0.24425042564574162 L 1.0305759198625557 0.2873058286211372 L 0.9867863578931225 0.3332309994837084 L 0.9459977128260897 0.38184101377939494 L 0.9083742261390443 0.4329401361372296 L 0.8740673943339001 0.4863226084265937 L 0.8432153589139538 0.5417734782725895 L 0.8159423501368075 0.5990694645933864 L 0.7923581867829688 0.6579798566743316 L 0.7725578339543798 0.7182674431585704 L 0.75662102068347 0.7796894672134597 L 0.7446119188924828 0.8419986040266506 L 0.7365788849957926 0.9049439566958171 L 0.7325542651856921 0.9682720665019323 L 0.7325542651856921 1.0317279334980678 L 0.7365788849957926 1.0950560433041832 L 0.7446119188924829 1.1580013959733502 L 0.7566210206834701 1.2203105327865407 L 0.7725578339543798 1.2817325568414297 L 0.7923581867829688 1.3420201433256687 L 0.8159423501368078 1.4009305354066142 L 0.8432153589139539 1.4582265217274106 L 0.8740673943339 1.513677391573406 L 0.9083742261390446 1.567059863862771 L 0.9459977128260898 1.6181589862206054 L 0.9867863578931226 1.6667690005162918 L 1.030575919862556 1.7126941713788628 L 1.0771900736235926 1.7557495743542586 L 1.1264411204312106 1.7957618405308322 L 1.1781307437027668 1.8325698546347713 L 1.2320508075688776 1.8660254037844388 L 1.2879841949631032 1.895993774291336 L 1.3457056818757493 1.9223542941045817 L 1.4049828442514554 1.9450008187146683 L 1.4655769938788425 1.9638421585599422 L 1.5272441395036866 1.9788024462147789 L 1.589735969295592 1.9898214418809328 L 1.6528008507120893 1.9968547759519424 L 1.7161848437340697 1.9998741276738752 L 1.7796327233926195 1.998867339183008 L 1.842889007469888 1.9938384644612541 L 1.9056989852358073 1.9848077530122081 L 1.9678097430783046 1.9718115683235418 L 2.028971182897152 1.9549022414440738 L 2.08893702916075 1.9341478602651065 L 2.147465820570764 1.9096319953545182 L 2.20432188234156 1.8814533634475819 L 2.2592762751793796 1.8497254299495145 L 2.312107717140075 1.814575952050336 L 2.3626034746534 1.7761464642917566 L 2.4105602191260096 1.734591708657533 L 2.455784845673948 1.6900790114821114 L 2.4980952506878555 1.6427876096865388 L 2.537321065099936 1.5929079290546402 L 2.5733043404000586 1.5406408174555974 L 2.605900184638662 1.4861967361004687 L 2.6349773458554986 1.429794912089171 L 2.6604187405849498 1.3716624556603272 L 2.682121925309823 1.3120334456984861 L 2.6999995089652336 1.2511479871810793 L 2.713979504831584 1.1892512443604106 L 2.7240056203996725 1.126592453573749 L 2.7300374840407615 1.0634239196565645 L 2.732050807568877 1.0000000000000002 M 2.732050807568877 -0.0 L 2.7300374840407615 -0.0634239196565645 L 2.7240056203996725 -0.12659245357374926 L 2.713979504831584 -0.1892512443604102 L 2.6999995089652336 -0.2511479871810792 L 2.6821219253098225 -0.3120334456984871 L 2.6604187405849498 -0.3716624556603275 L 2.634977345855498 -0.4297949120891717 L 2.6059001846386622 -0.4861967361004687 L 2.5733043404000586 -0.5406408174555976 L 2.5373210650999356 -0.5929079290546405 L 2.498095250687855 -0.6427876096865394 L 2.4557848456739473 -0.6900790114821119 L 2.410560219126009 -0.7345917086575333 L 2.3626034746533997 -0.7761464642917568 L 2.3121077171400755 -0.8145759520503357 L 2.2592762751793796 -0.8497254299495144 L 2.2043218823415596 -0.8814533634475821 L 2.1474658205707637 -0.9096319953545183 L 2.088937029160749 -0.9341478602651068 L 2.028971182897152 -0.954902241444074 L 1.9678097430783046 -0.9718115683235417 L 1.9056989852358073 -0.9848077530122081 L 1.842889007469888 -0.9938384644612541 L 1.7796327233926197 -0.998867339183008 L 1.7161848437340692 -0.9998741276738751 L 1.6528008507120886 -0.9968547759519424 L 1.589735969295592 -0.9898214418809327 L 1.5272441395036862 -0.9788024462147786 L 1.4655769938788423 -0.9638421585599422 L 1.4049828442514556 -0.9450008187146685 L 1.3457056818757485 -0.9223542941045814 L 1.287984194963103 -0.8959937742913359 L 1.2320508075688772 -0.8660254037844386 L 1.1781307437027666 -0.8325698546347712 L 1.1264411204312104 -0.795761840530832 L 1.0771900736235922 -0.7557495743542584 L 1.0305759198625557 -0.7126941713788628 L 0.9867863578931225 -0.6667690005162916 L 0.9459977128260897 -0.6181589862206051 L 0.9083742261390443 -0.5670598638627704 L 0.8740673943339001 -0.5136773915734063 L 0.8432153589139538 -0.4582265217274105 L 0.8159423501368075 -0.4009305354066136 L 0.7923581867829688 -0.34202014332566844 L 0.7725578339543798 -0.2817325568414296 L 0.75662102068347 -0.22031053278654036 L 0.7446119188924828 -0.15800139597334942 L 0.7365788849957926 -0.09505604330418288 L 0.7325542651856921 -0.031727933498067656 L 0.7325542651856921 0.03172793349806785 L 0.7365788849957926 0.09505604330418307 L 0.7446119188924829 0.15800139597335008 L 0.7566210206834701 0.22031053278654059 L 0.7725578339543798 0.28173255684142984 L 0.7923581867829688 0.34202014332566866 L 0.8159423501368078 0.4009305354066142 L 0.8432153589139539 0.4582265217274107 L 0.8740673943339 0.5136773915734061 L 0.9083742261390446 0.567059863862771 L 0.9459977128260898 0.6181589862206053 L 0.9867863578931226 0.6667690005162918 L 1.030575919862556 0.7126941713788628 L 1.0771900736235926 0.7557495743542587 L 1.1264411204312106 0.7957618405308321 L 1.1781307437027668 0.8325698546347713 L 1.2320508075688776 0.8660254037844388 L 1.2879841949631032 0.895993774291336 L 1.3457056818757493 0.9223542941045817 L 1.4049828442514554 0.9450008187146683 L 1.4655769938788425 0.9638421585599422 L 1.5272441395036866 0.9788024462147787 L 1.589735969295592 0.9898214418809327 L 1.6528008507120893 0.9968547759519424 L 1.7161848437340697 0.9998741276738751 L 1.7796327233926195 0.998867339183008 L 1.842889007469888 0.9938384644612541 L 1.9056989852358073 0.9848077530122081 L 1.9678097430783046 0.9718115683235417 L 2.028971182897152 0.9549022414440739 L 2.08893702916075 0.9341478602651064 L 2.147465820570764 0.9096319953545182 L 2.20432188234156 0.881453363447582 L 2.2592762751793796 0.8497254299495144 L 2.312107717140075 0.814575952050336 L 2.3626034746534 0.7761464642917566 L 2.4105602191260096 0.7345917086575331 L 2.455784845673948 0.6900790114821114 L 2.4980952506878555 0.6427876096865389 L 2.537321065099936 0.5929079290546402 L 2.5733043404000586 0.5406408174555974 L 2.605900184638662 0.48619673610046876 L 2.6349773458554986 0.42979491208917114 L 2.6604187405849498 0.37166245566032724 L 2.682121925309823 0.3120334456984862 L 2.6999995089652336 0.25114798718107934 L 2.713979504831584 0.18925124436041063 L 2.7240056203996725 0.12659245357374904 L 2.7300374840407615 0.06342391965656452 L 2.732050807568877 2.4492935982947064e-16 M 2.732050807568877 -1.0 L 2.7300374840407615 -1.0634239196565645 L 2.7240056203996725 -1.1265924535737493 L 2.713979504831584 -1.1892512443604102 L 2.6999995089652336 -1.2511479871810791 L 2.6821219253098225 -1.312033445698487 L 2.6604187405849498 -1.3716624556603274 L 2.634977345855498 -1.4297949120891718 L 2.6059001846386622 -1.4861967361004687 L 2.5733043404000586 -1.5406408174555977 L 2.5373210650999356 -1.5929079290546406 L 2.498095250687855 -1.6427876096865393 L 2.4557848456739473 -1.690079011482112 L 2.410560219126009 -1.7345917086575333 L 2.3626034746533997 -1.7761464642917568 L 2.3121077171400755 -1.8145759520503357 L 2.2592762751793796 -1.8497254299495145 L 2.2043218823415596 -1.881453363447582 L 2.1474658205707637 -1.9096319953545184 L 2.088937029160749 -1.9341478602651068 L 2.028971182897152 -1.954902241444074 L 1.9678097430783046 -1.9718115683235418 L 1.9056989852358073 -1.9848077530122081 L 1.842889007469888 -1.9938384644612541 L 1.7796327233926197 -1.998867339183008 L 1.7161848437340692 -1.9998741276738752 L 1.6528008507120886 -1.9968547759519424 L 1.589735969295592 -1.9898214418809328 L 1.5272441395036862 -1.9788024462147786 L 1.4655769938788423 -1.9638421585599422 L 1.4049828442514556 -1.9450008187146683 L 1.3457056818757485 -1.9223542941045815 L 1.287984194963103 -1.8959937742913358 L 1.2320508075688772 -1.8660254037844386 L 1.1781307437027666 -1.8325698546347713 L 1.1264411204312104 -1.795761840530832 L 1.0771900736235922 -1.7557495743542584 L 1.0305759198625557 -1.7126941713788628 L 0.9867863578931225 -1.6667690005162916 L 0.9459977128260897 -1.618158986220605 L 0.9083742261390443 -1.5670598638627704 L 0.8740673943339001 -1.5136773915734063 L 0.8432153589139538 -1.4582265217274104 L 0.8159423501368075 -1.4009305354066135 L 0.7923581867829688 -1.3420201433256684 L 0.7725578339543798 -1.2817325568414297 L 0.75662102068347 -1.2203105327865404 L 0.7446119188924828 -1.1580013959733495 L 0.7365788849957926 -1.095056043304183 L 0.7325542651856921 -1.0317279334980676 L 0.7325542651856921 -0.9682720665019322 L 0.7365788849957926 -0.904943956695817 L 0.7446119188924829 -0.8419986040266499 L 0.7566210206834701 -0.7796894672134594 L 0.7725578339543798 -0.7182674431585702 L 0.7923581867829688 -0.6579798566743313 L 0.8159423501368078 -0.5990694645933858 L 0.8432153589139539 -0.5417734782725894 L 0.8740673943339 -0.4863226084265939 L 0.9083742261390446 -0.43294013613722904 L 0.9459977128260898 -0.3818410137793947 L 0.9867863578931226 -0.33323099948370816 L 1.030575919862556 -0.2873058286211372 L 1.0771900736235926 -0.2442504256457413 L 1.1264411204312106 -0.2042381594691679 L 1.1781307437027668 -0.1674301453652287 L 1.2320508075688776 -0.13397459621556118 L 1.2879841949631032 -0.10400622570866402 L 1.3457056818757493 -0.0776457058954183 L 1.4049828442514554 -0.054999181285331655 L 1.4655769938788425 -0.03615784144005785 L 1.5272441395036866 -0.021197553785221257 L 1.589735969295592 -0.010178558119067316 L 1.6528008507120893 -0.0031452240480576155 L 1.7161848437340697 -0.0001258723261249317 L 1.7796327233926195 -0.0011326608169920371 L 1.842889007469888 -0.006161535538745877 L 1.9056989852358073 -0.015192246987791869 L 1.9678097430783046 -0.028188431676458348 L 2.028971182897152 -0.045097758555926126 L 2.08893702916075 -0.06585213973489357 L 2.147465820570764 -0.09036800464548178 L 2.20432188234156 -0.11854663655241804 L 2.2592762751793796 -0.1502745700504856 L 2.312107717140075 -0.18542404794966405 L 2.3626034746534 -0.2238535357082434 L 2.4105602191260096 -0.2654082913424669 L 2.455784845673948 -0.30992098851788863 L 2.4980952506878555 -0.3572123903134611 L 2.537321065099936 -0.4070920709453598 L 2.5733043404000586 -0.45935918254440256 L 2.605900184638662 -0.5138032638995312 L 2.6349773458554986 -0.5702050879108289 L 2.6604187405849498 -0.6283375443396728 L 2.682121925309823 -0.6879665543015139 L 2.6999995089652336 -0.7488520128189207 L 2.713979504831584 -0.8107487556395894 L 2.7240056203996725 -0.873407546426251 L 2.7300374840407615 -0.9365760803434355 L 2.732050807568877 -0.9999999999999998 M 2.732050807568877 -2.0 L 2.7300374840407615 -2.0634239196565645 L 2.7240056203996725 -2.1265924535737493 L 2.713979504831584 -2.18925124436041 L 2.6999995089652336 -2.251147987181079 L 2.6821219253098225 -2.312033445698487 L 2.6604187405849498 -2.3716624556603274 L 2.634977345855498 -2.4297949120891715 L 2.6059001846386622 -2.4861967361004687 L 2.5733043404000586 -2.5406408174555977 L 2.5373210650999356 -2.5929079290546406 L 2.498095250687855 -2.6427876096865393 L 2.4557848456739473 -2.690079011482112 L 2.410560219126009 -2.7345917086575335 L 2.3626034746533997 -2.776146464291757 L 2.3121077171400755 -2.814575952050336 L 2.2592762751793796 -2.8497254299495145 L 2.2043218823415596 -2.881453363447582 L 2.1474658205707637 -2.9096319953545184 L 2.088937029160749 -2.9341478602651065 L 2.028971182897152 -2.954902241444074 L 1.9678097430783046 -2.9718115683235418 L 1.9056989852358073 -2.984807753012208 L 1.842889007469888 -2.993838464461254 L 1.7796327233926197 -2.998867339183008 L 1.7161848437340692 -2.999874127673875 L 1.6528008507120886 -2.9968547759519426 L 1.589735969295592 -2.989821441880933 L 1.5272441395036862 -2.978802446214779 L 1.4655769938788423 -2.963842158559942 L 1.4049828442514556 -2.9450008187146683 L 1.3457056818757485 -2.9223542941045815 L 1.287984194963103 -2.8959937742913358 L 1.2320508075688772 -2.8660254037844384 L 1.1781307437027666 -2.8325698546347713 L 1.1264411204312104 -2.795761840530832 L 1.0771900736235922 -2.755749574354258 L 1.0305759198625557 -2.712694171378863 L 0.9867863578931225 -2.6667690005162914 L 0.9459977128260897 -2.618158986220605 L 0.9083742261390443 -2.56705986386277 L 0.8740673943339001 -2.513677391573406 L 0.8432153589139538 -2.4582265217274104 L 0.8159423501368075 -2.4009305354066135 L 0.7923581867829688 -2.3420201433256684 L 0.7725578339543798 -2.2817325568414297 L 0.75662102068347 -2.2203105327865402 L 0.7446119188924828 -2.1580013959733493 L 0.7365788849957926 -2.095056043304183 L 0.7325542651856921 -2.031727933498068 L 0.7325542651856921 -1.9682720665019322 L 0.7365788849957926 -1.9049439566958168 L 0.7446119188924829 -1.8419986040266498 L 0.7566210206834701 -1.7796894672134593 L 0.7725578339543798 -1.7182674431585703 L 0.7923581867829688 -1.6579798566743313 L 0.8159423501368078 -1.5990694645933858 L 0.8432153589139539 -1.5417734782725894 L 0.8740673943339 -1.486322608426594 L 0.9083742261390446 -1.432940136137229 L 0.9459977128260898 -1.3818410137793946 L 0.9867863578931226 -1.3332309994837082 L 1.030575919862556 -1.2873058286211372 L 1.0771900736235926 -1.2442504256457414 L 1.1264411204312106 -1.2042381594691678 L 1.1781307437027668 -1.1674301453652287 L 1.2320508075688776 -1.1339745962155612 L 1.2879841949631032 -1.104006225708664 L 1.3457056818757493 -1.0776457058954183 L 1.4049828442514554 -1.0549991812853317 L 1.4655769938788425 -1.0361578414400578 L 1.5272441395036866 -1.0211975537852211 L 1.589735969295592 -1.0101785581190672 L 1.6528008507120893 -1.0031452240480576 L 1.7161848437340697 -1.0001258723261248 L 1.7796327233926195 -1.001132660816992 L 1.842889007469888 -1.0061615355387459 L 1.9056989852358073 -1.0151922469877919 L 1.9678097430783046 -1.0281884316764582 L 2.028971182897152 -1.0450977585559262 L 2.08893702916075 -1.0658521397348935 L 2.147465820570764 -1.0903680046454818 L 2.20432188234156 -1.1185466365524181 L 2.2592762751793796 -1.1502745700504855 L 2.312107717140075 -1.185424047949664 L 2.3626034746534 -1.2238535357082434 L 2.4105602191260096 -1.265408291342467 L 2.455784845673948 -1.3099209885178886 L 2.4980952506878555 -1.3572123903134612 L 2.537321065099936 -1.4070920709453598 L 2.5733043404000586 -1.4593591825444026 L 2.605900184638662 -1.5138032638995313 L 2.6349773458554986 -1.570205087910829 L 2.6604187405849498 -1.6283375443396728 L 2.682121925309823 -1.6879665543015139 L 2.6999995089652336 -1.7488520128189207 L 2.713979504831584 -1.8107487556395894 L 2.7240056203996725 -1.873407546426251 L 2.7300374840407615 -1.9365760803434355 L 2.732050807568877 -1.9999999999999998 M 3.598076211353316 1.5 L 3.5960628878252003 1.4365760803434355 L 3.5900310241841114 1.3734075464262507 L 3.5800049086160226 1.3107487556395898 L 3.5660249127496724 1.2488520128189209 L 3.5481473290942613 1.187966554301513 L 3.5264441443693886 1.1283375443396726 L 3.5010027496399374 1.0702050879108282 L 3.471925588423101 1.0138032638995313 L 3.439329744184497 0.9593591825444024 L 3.4033464688843744 0.9070920709453595 L 3.364120654472294 0.8572123903134606 L 3.321810249458386 0.8099209885178881 L 3.2765856229104484 0.7654082913424667 L 3.2286288784378385 0.7238535357082432 L 3.1781331209245143 0.6854240479496643 L 3.1253016789638184 0.6502745700504856 L 3.0703472861259984 0.6185466365524179 L 3.0134912243552026 0.5903680046454817 L 2.954962432945188 0.5658521397348932 L 2.8949965866815908 0.545097758555926 L 2.8338351468627434 0.5281884316764583 L 2.771724389020246 0.5151922469877919 L 2.708914411254327 0.5061615355387459 L 2.6456581271770583 0.501132660816992 L 2.582210247518508 0.5001258723261249 L 2.5188262544965276 0.5031452240480576 L 2.4557613730800307 0.5101785581190673 L 2.3932695432881252 0.5211975537852214 L 2.331602397663281 0.5361578414400578 L 2.271008248035894 0.5549991812853315 L 2.2117310856601873 0.5776457058954186 L 2.154009598747542 0.6040062257086641 L 2.098076211353316 0.6339745962155614 L 2.0441561474872056 0.6674301453652288 L 1.9924665242156492 0.704238159469168 L 1.943215477408031 0.7442504256457416 L 1.8966013236469945 0.7873058286211372 L 1.8528117616775615 0.8332309994837084 L 1.8120231166105285 0.8818410137793949 L 1.774399629923483 0.9329401361372296 L 1.740092798118339 0.9863226084265937 L 1.7092407626983928 1.0417734782725896 L 1.6819677539212463 1.0990694645933865 L 1.6583835905674076 1.1579798566743316 L 1.6385832377388185 1.2182674431585703 L 1.6226464244679089 1.2796894672134596 L 1.6106373226769217 1.3419986040266505 L 1.6026042887802314 1.404943956695817 L 1.5985796689701308 1.4682720665019324 L 1.5985796689701308 1.5317279334980678 L 1.6026042887802314 1.5950560433041832 L 1.6106373226769217 1.6580013959733502 L 1.6226464244679089 1.7203105327865407 L 1.6385832377388185 1.7817325568414297 L 1.6583835905674076 1.8420201433256687 L 1.6819677539212465 1.9009305354066142 L 1.7092407626983928 1.9582265217274106 L 1.7400927981183387 2.013677391573406 L 1.7743996299234834 2.067059863862771 L 1.8120231166105287 2.1181589862206054 L 1.8528117616775615 2.166769000516292 L 1.8966013236469947 2.212694171378863 L 1.9432154774080315 2.2557495743542586 L 1.9924665242156494 2.295761840530832 L 2.0441561474872056 2.3325698546347713 L 2.0980762113533165 2.366025403784439 L 2.154009598747542 2.3959937742913358 L 2.211731085660188 2.422354294104582 L 2.271008248035894 2.4450008187146683 L 2.331602397663281 2.463842158559942 L 2.3932695432881257 2.478802446214779 L 2.4557613730800307 2.489821441880933 L 2.518826254496528 2.4968547759519426 L 2.5822102475185083 2.499874127673875 L 2.6456581271770583 2.498867339183008 L 2.708914411254327 2.493838464461254 L 2.771724389020246 2.484807753012208 L 2.8338351468627434 2.4718115683235418 L 2.8949965866815908 2.4549022414440738 L 2.9549624329451887 2.4341478602651065 L 3.013491224355203 2.409631995354518 L 3.070347286125999 2.381453363447582 L 3.1253016789638184 2.3497254299495145 L 3.178133120924514 2.314575952050336 L 3.2286288784378385 2.276146464291757 L 3.2765856229104484 2.234591708657533 L 3.3218102494583865 2.190079011482111 L 3.3641206544722944 2.142787609686539 L 3.403346468884375 2.09290792905464 L 3.439329744184497 2.0406408174555972 L 3.471925588423101 1.9861967361004687 L 3.5010027496399374 1.929794912089171 L 3.5264441443693886 1.8716624556603272 L 3.548147329094262 1.8120334456984861 L 3.5660249127496724 1.7511479871810793 L 3.5800049086160226 1.6892512443604106 L 3.5900310241841114 1.626592453573749 L 3.5960628878252003 1.5634239196565645 L 3.598076211353316 1.5000000000000002 M 3.598076211353316 0.5 L 3.5960628878252003 0.4365760803434355 L 3.5900310241841114 0.37340754642625074 L 3.5800049086160226 0.3107487556395898 L 3.5660249127496724 0.24885201281892078 L 3.5481473290942613 0.18796655430151288 L 3.5264441443693886 0.12833754433967248 L 3.5010027496399374 0.0702050879108283 L 3.471925588423101 0.013803263899531293 L 3.439329744184497 -0.040640817455597555 L 3.4033464688843744 -0.09290792905464051 L 3.364120654472294 -0.14278760968653936 L 3.321810249458386 -0.19007901148211193 L 3.2765856229104484 -0.23459170865753332 L 3.2286288784378385 -0.2761464642917568 L 3.1781331209245143 -0.3145759520503357 L 3.1253016789638184 -0.3497254299495144 L 3.0703472861259984 -0.3814533634475821 L 3.0134912243552026 -0.40963199535451833 L 2.954962432945188 -0.43414786026510677 L 2.8949965866815908 -0.454902241444074 L 2.8338351468627434 -0.47181156832354165 L 2.771724389020246 -0.48480775301220813 L 2.708914411254327 -0.4938384644612541 L 2.6456581271770583 -0.49886733918300796 L 2.582210247518508 -0.49987412767387507 L 2.5188262544965276 -0.4968547759519424 L 2.4557613730800307 -0.4898214418809327 L 2.3932695432881252 -0.47880244621477863 L 2.331602397663281 -0.46384215855994215 L 2.271008248035894 -0.44500081871466846 L 2.2117310856601873 -0.42235429410458136 L 2.154009598747542 -0.39599377429133586 L 2.098076211353316 -0.3660254037844386 L 2.0441561474872056 -0.3325698546347712 L 1.9924665242156492 -0.295761840530832 L 1.943215477408031 -0.2557495743542584 L 1.8966013236469945 -0.21269417137886282 L 1.8528117616775615 -0.16676900051629162 L 1.8120231166105285 -0.11815898622060506 L 1.774399629923483 -0.06705986386277041 L 1.740092798118339 -0.013677391573406306 L 1.7092407626983928 0.04177347827258948 L 1.6819677539212463 0.09906946459338639 L 1.6583835905674076 0.15797985667433156 L 1.6385832377388185 0.21826744315857038 L 1.6226464244679089 0.27968946721345966 L 1.6106373226769217 0.3419986040266506 L 1.6026042887802314 0.4049439566958171 L 1.5985796689701308 0.4682720665019323 L 1.5985796689701308 0.5317279334980678 L 1.6026042887802314 0.595056043304183 L 1.6106373226769217 0.6580013959733501 L 1.6226464244679089 0.7203105327865406 L 1.6385832377388185 0.7817325568414298 L 1.6583835905674076 0.8420201433256687 L 1.6819677539212465 0.9009305354066142 L 1.7092407626983928 0.9582265217274106 L 1.7400927981183387 1.013677391573406 L 1.7743996299234834 1.067059863862771 L 1.8120231166105287 1.1181589862206054 L 1.8528117616775615 1.1667690005162918 L 1.8966013236469947 1.2126941713788628 L 1.9432154774080315 1.2557495743542586 L 1.9924665242156494 1.2957618405308322 L 2.0441561474872056 1.3325698546347713 L 2.0980762113533165 1.3660254037844388 L 2.154009598747542 1.395993774291336 L 2.211731085660188 1.4223542941045817 L 2.271008248035894 1.4450008187146683 L 2.331602397663281 1.4638421585599422 L 2.3932695432881257 1.4788024462147789 L 2.4557613730800307 1.4898214418809328 L 2.518826254496528 1.4968547759519424 L 2.5822102475185083 1.4998741276738752 L 2.6456581271770583 1.498867339183008 L 2.708914411254327 1.4938384644612541 L 2.771724389020246 1.4848077530122081 L 2.8338351468627434 1.4718115683235418 L 2.8949965866815908 1.4549022414440738 L 2.9549624329451887 1.4341478602651065 L 3.013491224355203 1.4096319953545182 L 3.070347286125999 1.3814533634475819 L 3.1253016789638184 1.3497254299495145 L 3.178133120924514 1.314575952050336 L 3.2286288784378385 1.2761464642917566 L 3.2765856229104484 1.234591708657533 L 3.3218102494583865 1.1900790114821114 L 3.3641206544722944 1.1427876096865388 L 3.403346468884375 1.0929079290546402 L 3.439329744184497 1.0406408174555974 L 3.471925588423101 0.9861967361004688 L 3.5010027496399374 0.9297949120891711 L 3.5264441443693886 0.8716624556603272 L 3.548147329094262 0.8120334456984861 L 3.5660249127496724 0.7511479871810793 L 3.5800049086160226 0.6892512443604106 L 3.5900310241841114 0.626592453573749 L 3.5960628878252003 0.5634239196565645 L 3.598076211353316 0.5000000000000002 M 3.598076211353316 -0.5 L 3.5960628878252003 -0.5634239196565645 L 3.5900310241841114 -0.6265924535737493 L 3.5800049086160226 -0.6892512443604102 L 3.5660249127496724 -0.7511479871810792 L 3.5481473290942613 -0.8120334456984871 L 3.5264441443693886 -0.8716624556603275 L 3.5010027496399374 -0.9297949120891718 L 3.471925588423101 -0.9861967361004687 L 3.439329744184497 -1.0406408174555977 L 3.4033464688843744 -1.0929079290546406 L 3.364120654472294 -1.1427876096865393 L 3.321810249458386 -1.190079011482112 L 3.2765856229104484 -1.2345917086575333 L 3.2286288784378385 -1.2761464642917568 L 3.1781331209245143 -1.3145759520503357 L 3.1253016789638184 -1.3497254299495145 L 3.0703472861259984 -1.381453363447582 L 3.0134912243552026 -1.4096319953545184 L 2.954962432945188 -1.4341478602651068 L 2.8949965866815908 -1.454902241444074 L 2.8338351468627434 -1.4718115683235418 L 2.771724389020246 -1.4848077530122081 L 2.708914411254327 -1.4938384644612541 L 2.6456581271770583 -1.498867339183008 L 2.582210247518508 -1.4998741276738752 L 2.5188262544965276 -1.4968547759519424 L 2.4557613730800307 -1.4898214418809328 L 2.3932695432881252 -1.4788024462147786 L 2.331602397663281 -1.4638421585599422 L 2.271008248035894 -1.4450008187146683 L 2.2117310856601873 -1.4223542941045815 L 2.154009598747542 -1.3959937742913358 L 2.098076211353316 -1.3660254037844386 L 2.0441561474872056 -1.3325698546347713 L 1.9924665242156492 -1.295761840530832 L 1.943215477408031 -1.2557495743542584 L 1.8966013236469945 -1.2126941713788628 L 1.8528117616775615 -1.1667690005162916 L 1.8120231166105285 -1.118158986220605 L 1.774399629923483 -1.0670598638627704 L 1.740092798118339 -1.0136773915734063 L 1.7092407626983928 -0.9582265217274105 L 1.6819677539212463 -0.9009305354066136 L 1.6583835905674076 -0.8420201433256684 L 1.6385832377388185 -0.7817325568414296 L 1.6226464244679089 -0.7203105327865403 L 1.6106373226769217 -0.6580013959733494 L 1.6026042887802314 -0.5950560433041829 L 1.5985796689701308 -0.5317279334980677 L 1.5985796689701308 -0.46827206650193215 L 1.6026042887802314 -0.40494395669581695 L 1.6106373226769217 -0.34199860402664994 L 1.6226464244679089 -0.27968946721345944 L 1.6385832377388185 -0.21826744315857016 L 1.6583835905674076 -0.15797985667433134 L 1.6819677539212465 -0.09906946459338578 L 1.7092407626983928 -0.041773478272589315 L 1.7400927981183387 0.013677391573406084 L 1.7743996299234834 0.06705986386277096 L 1.8120231166105287 0.11815898622060528 L 1.8528117616775615 0.16676900051629184 L 1.8966013236469947 0.21269417137886282 L 1.9432154774080315 0.2557495743542587 L 1.9924665242156494 0.2957618405308321 L 2.0441561474872056 0.3325698546347713 L 2.0980762113533165 0.3660254037844388 L 2.154009598747542 0.395993774291336 L 2.211731085660188 0.4223542941045817 L 2.271008248035894 0.44500081871466834 L 2.331602397663281 0.46384215855994215 L 2.3932695432881257 0.47880244621477874 L 2.4557613730800307 0.4898214418809327 L 2.518826254496528 0.4968547759519424 L 2.5822102475185083 0.49987412767387507 L 2.6456581271770583 0.49886733918300796 L 2.708914411254327 0.4938384644612541 L 2.771724389020246 0.48480775301220813 L 2.8338351468627434 0.47181156832354165 L 2.8949965866815908 0.4549022414440739 L 2.9549624329451887 0.43414786026510643 L 3.013491224355203 0.4096319953545182 L 3.070347286125999 0.38145336344758196 L 3.1253016789638184 0.3497254299495144 L 3.178133120924514 0.31457595205033595 L 3.2286288784378385 0.2761464642917566 L 3.2765856229104484 0.2345917086575331 L 3.3218102494583865 0.19007901148211137 L 3.3641206544722944 0.14278760968653892 L 3.403346468884375 0.09290792905464018 L 3.439329744184497 0.040640817455597444 L 3.471925588423101 -0.013803263899531237 L 3.5010027496399374 -0.07020508791082886 L 3.5264441443693886 -0.12833754433967276 L 3.548147329094262 -0.18796655430151382 L 3.5660249127496724 -0.24885201281892066 L 3.5800049086160226 -0.31074875563958937 L 3.5900310241841114 -0.37340754642625096 L 3.5960628878252003 -0.4365760803434355 L 3.598076211353316 -0.4999999999999998 M 3.598076211353316 -1.5 L 3.5960628878252003 -1.5634239196565645 L 3.5900310241841114 -1.6265924535737493 L 3.5800049086160226 -1.6892512443604102 L 3.5660249127496724 -1.7511479871810791 L 3.5481473290942613 -1.812033445698487 L 3.5264441443693886 -1.8716624556603274 L 3.5010027496399374 -1.9297949120891718 L 3.471925588423101 -1.9861967361004687 L 3.439329744184497 -2.0406408174555977 L 3.4033464688843744 -2.0929079290546406 L 3.364120654472294 -2.1427876096865393 L 3.321810249458386 -2.190079011482112 L 3.2765856229104484 -2.2345917086575335 L 3.2286288784378385 -2.276146464291757 L 3.1781331209245143 -2.314575952050336 L 3.1253016789638184 -2.3497254299495145 L 3.0703472861259984 -2.381453363447582 L 3.0134912243552026 -2.4096319953545184 L 2.954962432945188 -2.4341478602651065 L 2.8949965866815908 -2.454902241444074 L 2.8338351468627434 -2.4718115683235418 L 2.771724389020246 -2.484807753012208 L 2.708914411254327 -2.493838464461254 L 2.6456581271770583 -2.498867339183008 L 2.582210247518508 -2.499874127673875 L 2.5188262544965276 -2.4968547759519426 L 2.4557613730800307 -2.489821441880933 L 2.3932695432881252 -2.478802446214779 L 2.331602397663281 -2.463842158559942 L 2.271008248035894 -2.4450008187146683 L 2.2117310856601873 -2.4223542941045815 L 2.154009598747542 -2.3959937742913358 L 2.098076211353316 -2.3660254037844384 L 2.0441561474872056 -2.3325698546347713 L 1.9924665242156492 -2.295761840530832 L 1.943215477408031 -2.255749574354258 L 1.8966013236469945 -2.212694171378863 L 1.8528117616775615 -2.1667690005162914 L 1.8120231166105285 -2.118158986220605 L 1.774399629923483 -2.06705986386277 L 1.740092798118339 -2.013677391573406 L 1.7092407626983928 -1.9582265217274104 L 1.6819677539212463 -1.9009305354066135 L 1.6583835905674076 -1.8420201433256684 L 1.6385832377388185 -1.7817325568414297 L 1.6226464244679089 -1.7203105327865404 L 1.6106373226769217 -1.6580013959733495 L 1.6026042887802314 -1.595056043304183 L 1.5985796689701308 -1.5317279334980676 L 1.5985796689701308 -1.4682720665019322 L 1.6026042887802314 -1.4049439566958168 L 1.6106373226769217 -1.3419986040266498 L 1.6226464244679089 -1.2796894672134593 L 1.6385832377388185 -1.2182674431585703 L 1.6583835905674076 -1.1579798566743313 L 1.6819677539212465 -1.0990694645933858 L 1.7092407626983928 -1.0417734782725894 L 1.7400927981183387 -0.9863226084265939 L 1.7743996299234834 -0.932940136137229 L 1.8120231166105287 -0.8818410137793947 L 1.8528117616775615 -0.8332309994837082 L 1.8966013236469947 -0.7873058286211372 L 1.9432154774080315 -0.7442504256457413 L 1.9924665242156494 -0.7042381594691679 L 2.0441561474872056 -0.6674301453652287 L 2.0980762113533165 -0.6339745962155612 L 2.154009598747542 -0.604006225708664 L 2.211731085660188 -0.5776457058954183 L 2.271008248035894 -0.5549991812853317 L 2.331602397663281 -0.5361578414400578 L 2.3932695432881257 -0.5211975537852213 L 2.4557613730800307 -0.5101785581190673 L 2.518826254496528 -0.5031452240480576 L 2.5822102475185083 -0.5001258723261249 L 2.6456581271770583 -0.501132660816992 L 2.708914411254327 -0.5061615355387459 L 2.771724389020246 -0.5151922469877919 L 2.8338351468627434 -0.5281884316764583 L 2.8949965866815908 -0.5450977585559261 L 2.9549624329451887 -0.5658521397348936 L 3.013491224355203 -0.5903680046454818 L 3.070347286125999 -0.618546636552418 L 3.1253016789638184 -0.6502745700504856 L 3.178133120924514 -0.685424047949664 L 3.2286288784378385 -0.7238535357082434 L 3.2765856229104484 -0.7654082913424669 L 3.3218102494583865 -0.8099209885178886 L 3.3641206544722944 -0.8572123903134611 L 3.403346468884375 -0.9070920709453598 L 3.439329744184497 -0.9593591825444026 L 3.471925588423101 -1.0138032638995313 L 3.5010027496399374 -1.070205087910829 L 3.5264441443693886 -1.1283375443396728 L 3.548147329094262 -1.1879665543015139 L 3.5660249127496724 -1.2488520128189207 L 3.5800049086160226 -1.3107487556395894 L 3.5900310241841114 -1.373407546426251 L 3.5960628878252003 -1.4365760803434355 L 3.598076211353316 -1.4999999999999998 M 4.464101615137754 1.0 L 4.462088291609639 0.9365760803434355 L 4.45605642796855 0.8734075464262507 L 4.446030312400461 0.8107487556395898 L 4.43205031653411 0.7488520128189208 L 4.4141727328787 0.6879665543015129 L 4.3924695481538265 0.6283375443396725 L 4.367028153424376 0.5702050879108282 L 4.337950992207539 0.5138032638995313 L 4.305355147968935 0.45935918254440244 L 4.269371872668813 0.4070920709453595 L 4.230146058256732 0.35721239031346064 L 4.187835653242825 0.3099209885178881 L 4.142611026694887 0.2654082913424667 L 4.094654282222277 0.22385353570824318 L 4.044158524708953 0.18542404794966427 L 3.9913270827482568 0.1502745700504856 L 3.9363726899104368 0.11854663655241793 L 3.879516628139641 0.09036800464548167 L 3.820987836729626 0.06585213973489323 L 3.761021990466029 0.045097758555926015 L 3.699860550647182 0.028188431676458348 L 3.6377497928046845 0.015192246987791869 L 3.5749398150387655 0.006161535538745877 L 3.5116835309614967 0.0011326608169920371 L 3.448235651302946 0.0001258723261249317 L 3.384851658280966 0.0031452240480576155 L 3.321786776864469 0.010178558119067316 L 3.2592949470725636 0.021197553785221368 L 3.1976278014477195 0.03615784144005785 L 3.1370336518203326 0.054999181285331544 L 3.0777564894446257 0.07764570589541864 L 3.0200350025319804 0.10400622570866414 L 2.9641016151377544 0.1339745962155614 L 2.910181551271644 0.16743014536522882 L 2.8584919280000873 0.204238159469168 L 2.809240881192469 0.24425042564574162 L 2.762626727431433 0.2873058286211372 L 2.718837165462 0.3332309994837084 L 2.6780485203949667 0.38184101377939494 L 2.6404250337079214 0.4329401361372296 L 2.6061182019027775 0.4863226084265937 L 2.575266166482831 0.5417734782725895 L 2.547993157705685 0.5990694645933864 L 2.524408994351846 0.6579798566743316 L 2.504608641523257 0.7182674431585704 L 2.4886718282523472 0.7796894672134597 L 2.47666272646136 0.8419986040266506 L 2.4686296925646696 0.9049439566958171 L 2.464605072754569 0.9682720665019323 L 2.464605072754569 1.0317279334980678 L 2.4686296925646696 1.0950560433041832 L 2.47666272646136 1.1580013959733502 L 2.4886718282523472 1.2203105327865407 L 2.504608641523257 1.2817325568414297 L 2.524408994351846 1.3420201433256687 L 2.547993157705685 1.4009305354066142 L 2.575266166482831 1.4582265217274106 L 2.606118201902777 1.513677391573406 L 2.640425033707922 1.567059863862771 L 2.678048520394967 1.6181589862206054 L 2.718837165462 1.6667690005162918 L 2.7626267274314333 1.7126941713788628 L 2.80924088119247 1.7557495743542586 L 2.858491928000088 1.7957618405308322 L 2.910181551271644 1.8325698546347713 L 2.964101615137755 1.8660254037844388 L 3.0200350025319804 1.895993774291336 L 3.0777564894446265 1.9223542941045817 L 3.1370336518203326 1.9450008187146683 L 3.1976278014477195 1.9638421585599422 L 3.259294947072564 1.9788024462147789 L 3.321786776864469 1.9898214418809328 L 3.3848516582809665 1.9968547759519424 L 3.4482356513029466 1.9998741276738752 L 3.5116835309614967 1.998867339183008 L 3.5749398150387655 1.9938384644612541 L 3.6377497928046845 1.9848077530122081 L 3.699860550647182 1.9718115683235418 L 3.761021990466029 1.9549022414440738 L 3.820987836729627 1.9341478602651065 L 3.8795166281396414 1.9096319953545182 L 3.936372689910437 1.8814533634475819 L 3.9913270827482568 1.8497254299495145 L 4.044158524708952 1.814575952050336 L 4.094654282222277 1.7761464642917566 L 4.142611026694887 1.734591708657533 L 4.187835653242825 1.6900790114821114 L 4.230146058256732 1.6427876096865388 L 4.269371872668813 1.5929079290546402 L 4.305355147968935 1.5406408174555974 L 4.337950992207539 1.4861967361004687 L 4.367028153424376 1.429794912089171 L 4.392469548153827 1.3716624556603272 L 4.4141727328787 1.3120334456984861 L 4.43205031653411 1.2511479871810793 L 4.446030312400461 1.1892512443604106 L 4.45605642796855 1.126592453573749 L 4.462088291609639 1.0634239196565645 L 4.464101615137754 1.0000000000000002 M 4.464101615137754 -0.0 L 4.462088291609639 -0.0634239196565645 L 4.45605642796855 -0.12659245357374926 L 4.446030312400461 -0.1892512443604102 L 4.43205031653411 -0.2511479871810792 L 4.4141727328787 -0.3120334456984871 L 4.3924695481538265 -0.3716624556603275 L 4.367028153424376 -0.4297949120891717 L 4.337950992207539 -0.4861967361004687 L 4.305355147968935 -0.5406408174555976 L 4.269371872668813 -0.5929079290546405 L 4.230146058256732 -0.6427876096865394 L 4.187835653242825 -0.6900790114821119 L 4.142611026694887 -0.7345917086575333 L 4.094654282222277 -0.7761464642917568 L 4.044158524708953 -0.8145759520503357 L 3.9913270827482568 -0.8497254299495144 L 3.9363726899104368 -0.8814533634475821 L 3.879516628139641 -0.9096319953545183 L 3.820987836729626 -0.9341478602651068 L 3.761021990466029 -0.954902241444074 L 3.699860550647182 -0.9718115683235417 L 3.6377497928046845 -0.9848077530122081 L 3.5749398150387655 -0.9938384644612541 L 3.5116835309614967 -0.998867339183008 L 3.448235651302946 -0.9998741276738751 L 3.384851658280966 -0.9968547759519424 L 3.321786776864469 -0.9898214418809327 L 3.2592949470725636 -0.9788024462147786 L 3.1976278014477195 -0.9638421585599422 L 3.1370336518203326 -0.9450008187146685 L 3.0777564894446257 -0.9223542941045814 L 3.0200350025319804 -0.8959937742913359 L 2.9641016151377544 -0.8660254037844386 L 2.910181551271644 -0.8325698546347712 L 2.8584919280000873 -0.795761840530832 L 2.809240881192469 -0.7557495743542584 L 2.762626727431433 -0.7126941713788628 L 2.718837165462 -0.6667690005162916 L 2.6780485203949667 -0.6181589862206051 L 2.6404250337079214 -0.5670598638627704 L 2.6061182019027775 -0.5136773915734063 L 2.575266166482831 -0.4582265217274105 L 2.547993157705685 -0.4009305354066136 L 2.524408994351846 -0.34202014332566844 L 2.504608641523257 -0.2817325568414296 L 2.4886718282523472 -0.22031053278654036 L 2.47666272646136 -0.15800139597334942 L 2.4686296925646696 -0.09505604330418288 L 2.464605072754569 -0.031727933498067656 L 2.464605072754569 0.03172793349806785 L 2.4686296925646696 0.09505604330418307 L 2.47666272646136 0.15800139597335008 L 2.4886718282523472 0.22031053278654059 L 2.504608641523257 0.28173255684142984 L 2.524408994351846 0.34202014332566866 L 2.547993157705685 0.4009305354066142 L 2.575266166482831 0.4582265217274107 L 2.606118201902777 0.5136773915734061 L 2.640425033707922 0.567059863862771 L 2.678048520394967 0.6181589862206053 L 2.718837165462 0.6667690005162918 L 2.7626267274314333 0.7126941713788628 L 2.80924088119247 0.7557495743542587 L 2.858491928000088 0.7957618405308321 L 2.910181551271644 0.8325698546347713 L 2.964101615137755 0.8660254037844388 L 3.0200350025319804 0.895993774291336 L 3.0777564894446265 0.9223542941045817 L 3.1370336518203326 0.9450008187146683 L 3.1976278014477195 0.9638421585599422 L 3.259294947072564 0.9788024462147787 L 3.321786776864469 0.9898214418809327 L 3.3848516582809665 0.9968547759519424 L 3.4482356513029466 0.9998741276738751 L 3.5116835309614967 0.998867339183008 L 3.5749398150387655 0.9938384644612541 L 3.6377497928046845 0.9848077530122081 L 3.699860550647182 0.9718115683235417 L 3.761021990466029 0.9549022414440739 L 3.820987836729627 0.9341478602651064 L 3.8795166281396414 0.9096319953545182 L 3.936372689910437 0.881453363447582 L 3.9913270827482568 0.8497254299495144 L 4.044158524708952 0.814575952050336 L 4.094654282222277 0.7761464642917566 L 4.142611026694887 0.7345917086575331 L 4.187835653242825 0.6900790114821114 L 4.230146058256732 0.6427876096865389 L 4.269371872668813 0.5929079290546402 L 4.305355147968935 0.5406408174555974 L 4.337950992207539 0.48619673610046876 L 4.367028153424376 0.42979491208917114 L 4.392469548153827 0.37166245566032724 L 4.4141727328787 0.3120334456984862 L 4.43205031653411 0.25114798718107934 L 4.446030312400461 0.18925124436041063 L 4.45605642796855 0.12659245357374904 L 4.462088291609639 0.06342391965656452 L 4.464101615137754 2.4492935982947064e-16 M 4.464101615137754 -1.0 L 4.462088291609639 -1.0634239196565645 L 4.45605642796855 -1.1265924535737493 L 4.446030312400461 -1.1892512443604102 L 4.43205031653411 -1.2511479871810791 L 4.4141727328787 -1.312033445698487 L 4.3924695481538265 -1.3716624556603274 L 4.367028153424376 -1.4297949120891718 L 4.337950992207539 -1.4861967361004687 L 4.305355147968935 -1.5406408174555977 L 4.269371872668813 -1.5929079290546406 L 4.230146058256732 -1.6427876096865393 L 4.187835653242825 -1.690079011482112 L 4.142611026694887 -1.7345917086575333 L 4.094654282222277 -1.7761464642917568 L 4.044158524708953 -1.8145759520503357 L 3.9913270827482568 -1.8497254299495145 L 3.9363726899104368 -1.881453363447582 L 3.879516628139641 -1.9096319953545184 L 3.820987836729626 -1.9341478602651068 L 3.761021990466029 -1.954902241444074 L 3.699860550647182 -1.9718115683235418 L 3.6377497928046845 -1.9848077530122081 L 3.5749398150387655 -1.9938384644612541 L 3.5116835309614967 -1.998867339183008 L 3.448235651302946 -1.9998741276738752 L 3.384851658280966 -1.9968547759519424 L 3.321786776864469 -1.9898214418809328 L 3.2592949470725636 -1.9788024462147786 L 3.1976278014477195 -1.9638421585599422 L 3.1370336518203326 -1.9450008187146683 L 3.0777564894446257 -1.9223542941045815 L 3.0200350025319804 -1.8959937742913358 L 2.9641016151377544 -1.8660254037844386 L 2.910181551271644 -1.8325698546347713 L 2.8584919280000873 -1.795761840530832 L 2.809240881192469 -1.7557495743542584 L 2.762626727431433 -1.7126941713788628 L 2.718837165462 -1.6667690005162916 L 2.6780485203949667 -1.618158986220605 L 2.6404250337079214 -1.5670598638627704 L 2.6061182019027775 -1.5136773915734063 L 2.575266166482831 -1.4582265217274104 L 2.547993157705685 -1.4009305354066135 L 2.524408994351846 -1.3420201433256684 L 2.504608641523257 -1.2817325568414297 L 2.4886718282523472 -1.2203105327865404 L 2.47666272646136 -1.1580013959733495 L 2.4686296925646696 -1.095056043304183 L 2.464605072754569 -1.0317279334980676 L 2.464605072754569 -0.9682720665019322 L 2.4686296925646696 -0.904943956695817 L 2.47666272646136 -0.8419986040266499 L 2.4886718282523472 -0.7796894672134594 L 2.504608641523257 -0.7182674431585702 L 2.524408994351846 -0.6579798566743313 L 2.547993157705685 -0.5990694645933858 L 2.575266166482831 -0.5417734782725894 L 2.606118201902777 -0.4863226084265939 L 2.640425033707922 -0.43294013613722904 L 2.678048520394967 -0.3818410137793947 L 2.718837165462 -0.33323099948370816 L 2.7626267274314333 -0.2873058286211372 L 2.80924088119247 -0.2442504256457413 L 2.858491928000088 -0.2042381594691679 L 2.910181551271644 -0.1674301453652287 L 2.964101615137755 -0.13397459621556118 L 3.0200350025319804 -0.10400622570866402 L 3.0777564894446265 -0.0776457058954183 L 3.1370336518203326 -0.054999181285331655 L 3.1976278014477195 -0.03615784144005785 L 3.259294947072564 -0.021197553785221257 L 3.321786776864469 -0.010178558119067316 L 3.3848516582809665 -0.0031452240480576155 L 3.4482356513029466 -0.0001258723261249317 L 3.5116835309614967 -0.0011326608169920371 L 3.5749398150387655 -0.006161535538745877 L 3.6377497928046845 -0.015192246987791869 L 3.699860550647182 -0.028188431676458348 L 3.761021990466029 -0.045097758555926126 L 3.820987836729627 -0.06585213973489357 L 3.8795166281396414 -0.09036800464548178 L 3.936372689910437 -0.11854663655241804 L 3.9913270827482568 -0.1502745700504856 L 4.044158524708952 -0.18542404794966405 L 4.094654282222277 -0.2238535357082434 L 4.142611026694887 -0.2654082913424669 L 4.187835653242825 -0.30992098851788863 L 4.230146058256732 -0.3572123903134611 L 4.269371872668813 -0.4070920709453598 L 4.305355147968935 -0.45935918254440256 L 4.337950992207539 -0.5138032638995312 L 4.367028153424376 -0.5702050879108289 L 4.392469548153827 -0.6283375443396728 L 4.4141727328787 -0.6879665543015139 L 4.43205031653411 -0.7488520128189207 L 4.446030312400461 -0.8107487556395894 L 4.45605642796855 -0.873407546426251 L 4.462088291609639 -0.9365760803434355 L 4.464101615137754 -0.9999999999999998 M 4.732050807568877 -0.0 L 4.72601083698453 -0.1902717589696935 L 4.707915246061264 -0.3797773607212478 L 4.677836899356997 -0.5677537330812306 L 4.635896911757946 -0.7534439615432377 L 4.582264160791713 -0.9361003370954614 L 4.517154606617095 -1.1149873669809827 L 4.440830422428741 -1.289384736267515 L 4.353598938778232 -1.4585902083014062 L 4.255811406062421 -1.6219224523667926 L 4.147861580162052 -1.7787237871639214 L 4.030184136925811 -1.9283628290596182 L 3.903252921884088 -2.0702370344463357 L 3.7675790422402735 -2.2037751259725997 L 3.6237088088224443 -2.3284393928752705 L 3.472221536282472 -2.443727856151007 L 3.3137272104003848 -2.549176289848543 L 3.1488640318869248 -2.6443600903427464 L 2.9782958465745364 -2.728895986063555 L 2.802709472344493 -2.8024435807953205 L 2.6228119335537015 -2.8647067243322217 L 2.439327614097159 -2.915434704970625 L 2.252995340569668 -2.9544232590366244 L 2.06456540727191 -2.9815153933837624 L 1.8747965550401045 -2.9966020175490238 L 1.684452916064453 -2.999622383021625 L 1.4943009369985116 -2.990564327855827 L 1.3051062927490216 -2.969464325642798 L 1.1176308033733044 -2.9364073386443357 L 0.9326293664987728 -2.8915264756798265 L 0.7508469176166122 -2.8350024561440055 L 0.5730154304894912 -2.767062882313744 L 0.3998509697515549 -2.6879813228740077 L 0.23205080756887675 -2.598076211353316 L 0.07029061597054542 -2.4977095639043134 L -0.0847782538441233 -2.3872855215924957 L -0.23253139426697778 -2.2672487230627754 L -0.37237385555008684 -2.1380825141365882 L -0.5037425414583869 -2.000307001548875 L -0.6261084766594851 -1.8544769586618153 L -0.7389789367206214 -1.7011795915883112 L -0.8418994321360542 -1.541032174720219 L -0.934455538395893 -1.3746795651822317 L -1.0162745647273321 -1.202791606219841 L -1.087027054788848 -1.0260604299770053 L -1.1464281132746148 -0.8451976705242888 L -1.1942385530873443 -0.6609315983596211 L -1.2302658584603061 -0.4740041879200483 L -1.2543649601503764 -0.28516812991254864 L -1.266438819580678 -0.09518380049420297 L -1.266438819580678 0.09518380049420355 L -1.2543649601503764 0.28516812991254925 L -1.2302658584603057 0.4740041879200503 L -1.1942385530873438 0.6609315983596218 L -1.1464281132746148 0.8451976705242895 L -1.087027054788848 1.026060429977006 L -1.0162745647273308 1.2027916062198427 L -0.9344555383958926 1.374679565182232 L -0.8418994321360542 1.5410321747202183 L -0.7389789367206205 1.7011795915883128 L -0.6261084766594851 1.8544769586618157 L -0.5037425414583865 2.0003070015488755 L -0.37237385555008684 2.1380825141365882 L -0.23253139426697644 2.2672487230627763 L -0.08477825384412307 2.387285521592496 L 0.07029061597054564 2.497709563904314 L 0.23205080756887808 2.5980762113533165 L 0.3998509697515553 2.687981322874008 L 0.5730154304894937 2.767062882313745 L 0.7508469176166115 2.835002456144005 L 0.9326293664987733 2.8915264756798265 L 1.1176308033733056 2.936407338644336 L 1.3051062927490213 2.969464325642798 L 1.4943009369985134 2.990564327855827 L 1.6844529160644544 2.999622383021625 L 1.8747965550401045 2.9966020175490238 L 2.06456540727191 2.9815153933837624 L 2.252995340569667 2.9544232590366244 L 2.4393276140971594 2.915434704970625 L 2.622811933553702 2.8647067243322217 L 2.8027094723444947 2.802443580795319 L 2.9782958465745377 2.728895986063555 L 3.148864031886926 2.644360090342746 L 3.3137272104003843 2.549176289848543 L 3.472221536282471 2.443727856151008 L 3.623708808822445 2.3284393928752696 L 3.767579042240274 2.2037751259725993 L 3.9032529218840897 2.0702370344463343 L 4.030184136925812 1.9283628290596169 L 4.147861580162054 1.7787237871639205 L 4.255811406062421 1.6219224523667923 L 4.353598938778232 1.4585902083014064 L 4.440830422428741 1.2893847362675135 L 4.517154606617096 1.1149873669809818 L 4.5822641607917145 0.9361003370954586 L 4.635896911757946 0.753443961543238 L 4.677836899356997 0.5677537330812319 L 4.707915246061264 0.3797773607212471 L 4.72601083698453 0.19027175896969356 L 4.732050807568877 7.347880794884119e-16 M 4.832050807568877 -0.0 L 4.825809504631719 -0.19661415093534998 L 4.807110727344343 -0.39243660607862274 L 4.776029769083268 -0.5866788575172716 L 4.732691781897582 -0.7785587602613456 L 4.677271272565807 -0.9673036816653101 L 4.609991399918702 -1.1521536125470153 L 4.531123076257403 -1.3323642274764322 L 4.440983876485211 -1.507209881911453 L 4.339936759345539 -1.6759865341123525 L 4.228388605915159 -1.8380145800693857 L 4.1067885812377085 -1.9926415900282721 L 3.975626325694595 -2.139244935594547 L 3.835429983395987 -2.2772342968383534 L 3.686764075530897 -2.406054039304446 L 3.5302272272395916 -2.525185451356041 L 3.366449757161435 -2.6341488328434948 L 3.196091139364193 -2.7325054266875046 L 3.0198373478747254 -2.819859185599007 L 2.83839809450368 -2.895858366821831 L 2.652503971086529 -2.9601969484766295 L 2.4629035076481016 -3.012615861802979 L 2.270360158336361 -3.0529040343378453 L 2.075649227262011 -3.080899239829888 L 1.8795547466224787 -3.0964887514673247 L 1.6828663196809723 -3.099609795789013 L 1.4863759413128328 -3.0902498054510215 L 1.290874808921693 -3.0684464698308913 L 1.097150136566785 -3.034287583265814 L 0.9059819851297692 -2.987910691535821 L 0.7181401212848699 -2.9295025380154724 L 0.5343809179201782 -2.8592983117242023 L 0.3554443084909773 -2.777580700303141 L 0.1820508075688767 -2.68467875173176 L 0.014898609583934297 -2.580966549367791 L -0.14533922255789 -2.466861705645579 L -0.29801746766150616 -2.342823680498201 L -0.4425213443207192 -2.2093519312744747 L -0.5782689864259623 -2.066983901600504 L -0.7047137861337642 -1.9162928572838758 L -0.8213465948636047 -1.7578855779745883 L -0.9276977734595517 -1.5923999138775595 L -1.0233390832613853 -1.4205022173549726 L -1.107885410470539 -1.2428846597605023 L -1.1809963168674389 -1.0602624443095723 L -1.2423774106360645 -0.8733709262084318 L -1.291781531775885 -0.6829626516382752 L -1.3290097473279454 -0.48980432751738323 L -1.353912152407685 -0.29467373424296694 L -1.3663884738189966 -0.09835659384400974 L -1.3663884738189966 0.09835659384401034 L -1.353912152407685 0.29467373424296756 L -1.329009747327945 0.4898043275173853 L -1.291781531775885 0.6829626516382759 L -1.2423774106360645 0.8733709262084325 L -1.1809963168674389 1.060262444309573 L -1.107885410470538 1.242884659760504 L -1.023339083261385 1.420502217354973 L -0.9276977734595522 1.5923999138775589 L -0.8213465948636038 1.75788557797459 L -0.7047137861337638 1.9162928572838764 L -0.5782689864259618 2.066983901600505 L -0.44252134432071877 2.2093519312744747 L -0.29801746766150483 2.342823680498202 L -0.14533922255788978 2.4668617056455795 L 0.014898609583934741 2.580966549367791 L 0.18205080756887826 2.6846787517317603 L 0.35544430849097797 2.7775807003031416 L 0.5343809179201808 2.8592983117242032 L 0.7181401212848693 2.929502538015472 L 0.9059819851297698 2.987910691535821 L 1.0971501365667864 3.0342875832658143 L 1.2908748089216928 3.0684464698308913 L 1.4863759413128346 3.0902498054510215 L 1.6828663196809737 3.099609795789013 L 1.8795547466224787 3.0964887514673247 L 2.075649227262011 3.080899239829888 L 2.27036015833636 3.0529040343378453 L 2.4629035076481025 3.012615861802979 L 2.6525039710865297 2.960196948476629 L 2.838398094503682 2.89585836682183 L 3.0198373478747262 2.8198591855990065 L 3.1960911393641944 2.732505426687504 L 3.3664497571614347 2.6341488328434948 L 3.5302272272395907 2.5251854513560414 L 3.6867640755308977 2.4060540393044456 L 3.8354299833959873 2.2772342968383525 L 3.9756263256945967 2.139244935594545 L 4.10678858123771 1.9926415900282708 L 4.22838860591516 1.8380145800693846 L 4.339936759345539 1.675986534112352 L 4.440983876485211 1.5072098819114532 L 4.531123076257403 1.3323642274764307 L 4.6099913999187025 1.1521536125470144 L 4.677271272565809 0.9673036816653072 L 4.732691781897582 0.778558760261346 L 4.776029769083268 0.586678857517273 L 4.807110727344343 0.392436606078622 L 4.825809504631719 0.19661415093535 L 4.832050807568877 7.59281015471359e-16" /></g></svg>