<svg xmlns="http://www.w3.org/2000/svg" xmlns:inkscape="http://www.inkscape.org/namespaces/inkscape" width="11.0in" height="8.5in" viewBox="-32.30879961578757 -3.692845847857269 34.763220416351764 26.862488503544544"><g inkscape:label="0-layer" inkscape:groupmode="layer"><path style="stroke-width: 0.1042896612490553; stroke: black;" fill="none" d="M -1.64993170633711 0.45474795285354896 L -0.9168225546355198 1.3737240041962813 L -0.9168225546355198 1.3737240041962813 L 0.18371879392076806 0.9604749856033603 L 0.18371879392076806 0.9604749856033603 L 0.13078160165160924 -0.2139030050473345 L 0.13078160165160924 -0.2139030050473345 L -1.002476730996007 -0.5264595003163492 L -1.002476730996007 -0.5264595003163492 L -1.6499317063371097 0.4547479528535485 M -2.8165644484064685 -0.5967145264545467 L -2.768160109412216 0.8166704246350456 L -2.768160109412216 0.8166704246350456 L -1.3547751583226235 0.7682660856407931 L -1.3547751583226235 0.7682660856407931 L -1.4031794973168759 -0.6451188654487992 L -1.4031794973168759 -0.6451188654487992 L -2.8165644484064685 -0.5967145264545469 M -3.4008790499744994 -0.32604167177678833 L -4.29652626483485 -0.7708068530948593 L -4.29652626483485 -0.7708068530948593 L -5.1295278180052675 -0.21753620285605155 L -5.1295278180052675 -0.21753620285605155 L -5.066882156315334 0.7804996287008271 L -5.066882156315334 0.7804996287008271 L -4.1712349414549825 1.2252648100188979 L -4.1712349414549825 1.2252648100188979 L -3.3382333882845656 0.67199415978009 L -3.3382333882845656 0.67199415978009 L -3.4008790499745003 -0.32604167177678844 M -4.710738042938005 0.5684059085205552 L -6.2747161191816065 -0.1758874321922057 L -6.2747161191816065 -0.1758874321922057 L -6.137304021984643 1.5507039831530496 L -6.137304021984643 1.5507039831530496 L -4.710738042938005 0.5684059085205546 M -6.161614830192469 -0.4686980622426047 L -7.06981380200157 -0.8872367433760115 L -7.06981380200157 -0.8872367433760115 L -7.886378418234085 -0.3099827026651265 L -7.886378418234085 -0.3099827026651265 L -7.7947440626575 0.6858100191791656 L -7.7947440626575 0.6858100191791656 L -6.8865450908484 1.1043487003125725 L -6.8865450908484 1.1043487003125725 L -6.069980474615884 0.527094659601687 L -6.069980474615884 0.527094659601687 L -6.1616148301924705 -0.4686980622426049 M -9.646676623078717 0.764886964613539 L -8.528320251271694 1.6304960135719204 L -8.528320251271694 1.6304960135719204 L -7.662711202313313 0.5121396417648981 L -7.662711202313313 0.5121396417648981 L -8.781067574120335 -0.3534694071934834 L -8.781067574120335 -0.3534694071934834 L -9.646676623078717 0.7648869646135388 M -11.189371779882643 0.17130302478398007 L -10.968265444296437 1.5681251281184165 L -10.968265444296437 1.5681251281184165 L -9.571443340962 1.3470187925322081 L -9.571443340962 1.3470187925322081 L -9.792549676548207 -0.04980331080222811 L -9.792549676548207 -0.04980331080222811 L -11.189371779882643 0.17130302478397985 M -13.231465923635719 -0.3499765300745733 L -13.17512110996113 0.8242429013870599 L -13.17512110996113 0.8242429013870599 L -12.040960563138817 1.133509558629341 L -12.040960563138817 1.133509558629341 L -11.396355610178047 0.15042743293050148 L -11.396355610178047 0.15042743293050148 L -12.13212838675408 -0.7664173917261591 L -12.13212838675408 -0.7664173917261591 L -13.231465923635717 -0.34997653007457363 M -14.11039985227367 -0.6972927000272309 L -15.253654260282735 -0.4235494447350776 L -15.253654260282735 -0.4235494447350776 L -15.346593994514157 0.7483414277658982 L -15.346593994514157 0.7483414277658982 L -14.26077950116549 1.1988665627851172 L -14.26077950116549 1.1988665627851172 L -13.496769504567348 0.3054155365121548 L -13.496769504567348 0.3054155365121548 L -14.11039985227367 -0.6972927000272304 M -16.271989613380438 -0.2060781811872199 L -15.599391447791815 1.0379522475591287 L -15.599391447791815 1.0379522475591287 L -14.355361019045468 0.3653540819705099 L -14.355361019045468 0.3653540819705099 L -15.027959184634087 -0.8786763467758392 L -15.027959184634087 -0.8786763467758392 L -16.271989613380438 -0.20607818118722024 M -17.42286213041603 -0.407791828140208 L -18.736901014240374 0.1149909296068985 L -18.736901014240374 0.1149909296068985 L -18.214118256493265 1.4290298134312431 L -18.214118256493265 1.4290298134312431 L -16.90007937266892 0.906247055684137 L -16.90007937266892 0.906247055684137 L -17.42286213041603 -0.40779182814020776 M -18.049443376066996 0.9252872228834157 L -18.084515276431716 -0.07409756877833806 L -18.084515276431716 -0.07409756877833806 L -18.967543844348974 -0.5434168079343697 L -18.967543844348974 -0.5434168079343697 L -19.81550051190151 -0.013351255428647735 L -19.81550051190151 -0.013351255428647735 L -19.78042861153679 0.9860335362331059 L -19.78042861153679 0.9860335362331059 L -18.897400043619534 1.4553527753891375 L -18.897400043619534 1.4553527753891375 L -18.049443376066996 0.9252872228834148 M -20.09111055702143 0.5198164867115307 L -20.848313889862112 -0.13336274805865544 L -20.848313889862112 -0.13336274805865544 L -21.792585366817914 0.19580495662652408 L -21.792585366817914 0.19580495662652408 L -21.979653510933034 1.17815189608189 L -21.979653510933034 1.17815189608189 L -21.222450178092352 1.8313311308520759 L -21.222450178092352 1.8313311308520759 L -20.27817870113655 1.5021634261668961 L -20.27817870113655 1.5021634261668961 L -20.09111055702143 0.5198164867115302 M -23.29897230288899 -0.42819304703464994 L -23.395855233109017 1.3011460457496373 L -23.395855233109017 1.3011460457496373 L -21.849762181890277 0.5203795781211117 L -21.849762181890277 0.5203795781211117 L -23.29897230288899 -0.4281930470346495 M -23.377247646430167 -0.36281792649620015 L -24.219644273094396 -0.9016759072153595 L -24.219644273094396 -0.9016759072153595 L -25.107507286761287 -0.4415680188214024 L -25.107507286761287 -0.4415680188214024 L -25.15297367376395 0.557397850291714 L -25.15297367376395 0.557397850291714 L -24.31057704709972 1.096255831010873 L -24.31057704709972 1.096255831010873 L -23.42271403343283 0.6361479426169159 L -23.42271403343283 0.6361479426169159 L -23.377247646430167 -0.3628179264962006 M -26.136243217353123 1.8085844405238722 L -25.21228005309074 1.0817707901730085 L -25.21228005309074 1.0817707901730085 L -25.61800059145567 -0.02156816771752923 L -25.61800059145567 -0.02156816771752923 L -26.792712838361485 0.02334450554509293 L -26.792712838361485 0.02334450554509293 L -27.113004395585108 1.1544410220375498 L -27.113004395585108 1.1544410220375498 L -26.136243217353126 1.808584440523872 M -27.6731600057304 -0.16360385715668335 L -28.2083253293895 1.1454408618475413 L -28.2083253293895 1.1454408618475413 L -26.899280610385272 1.680606185506642 L -26.899280610385272 1.680606185506642 L -26.36411528672617 0.3715614665024175 L -26.36411528672617 0.3715614665024175 L -27.6731600057304 -0.16360385715668357 M -28.26955091924487 0.9227448210901512 L -28.410395183743063 -0.24435796119085634 L -28.410395183743063 -0.24435796119085634 L -29.5638991613078 -0.47106169956417004 L -29.5638991613078 -0.47106169956417004 L -30.135959561102812 0.5559304670254661 L -30.135959561102812 0.5559304670254661 L -29.33600835422925 1.4173502705310688 L -29.33600835422925 1.4173502705310688 L -28.269550919244875 0.9227448210901514 M -0.09345013309586664 0.8683455388444612 L -1.108040685115996 1.4621232944075964 L -1.108040685115996 1.4621232944075964 L -0.8568502043630446 2.6105436676286593 L -0.8568502043630446 2.6105436676286593 L 0.31298460241283516 2.7265287360889814 L 0.31298460241283516 2.7265287360889814 L 0.784791793470043 1.6497910773638804 L 0.784791793470043 1.6497910773638804 L -0.0934501330958663 0.8683455388444616 M -1.4648327624603 1.1740037571972342 L -2.462500812200635 1.242256687737362 L -2.462500812200635 1.242256687737362 L -2.9022260653403174 2.1403890286266334 L -2.9022260653403174 2.1403890286266334 L -2.344283268739664 2.9702684389757765 L -2.344283268739664 2.9702684389757765 L -1.346615218999329 2.9020155084356487 L -1.346615218999329 2.9020155084356487 L -0.906889965859647 2.0038831675463773 L -0.906889965859647 2.0038831675463773 L -1.4648327624603008 1.1740037571972344 M -4.203498350259661 0.9126030660934742 L -5.25426576819906 1.8591165807338985 L -5.25426576819906 1.8591165807338985 L -4.307752253558636 2.9098839986732976 L -4.307752253558636 2.9098839986732976 L -3.256984835619237 1.9633704840328732 L -3.256984835619237 1.9633704840328732 L -4.203498350259661 0.9126030660934742 M -5.9480114907468 2.5779239410998813 L -5.009047406493561 2.9219391275124558 L -5.009047406493561 2.9219391275124558 L -4.241639473646014 2.280779970514247 L -4.241639473646014 2.280779970514247 L -4.413195625051705 1.2956056271034633 L -4.413195625051705 1.2956056271034633 L -5.352159709304942 0.9515904406908895 L -5.352159709304942 0.9515904406908895 L -6.119567642152489 1.5927495976890984 L -6.119567642152489 1.5927495976890984 L -5.948011490746799 2.5779239410998818 M -6.084998973735826 2.8169825692093435 L -6.158328230385988 1.643701344877666 L -6.158328230385988 1.643701344877666 L -7.296844970723168 1.3508777747503484 L -7.296844970723168 1.3508777747503484 L -7.927157756362122 2.343184080036256 L -7.927157756362122 2.343184080036256 L -7.178195741093441 3.249286674081093 L -7.178195741093441 3.249286674081093 L -6.084998973735826 2.8169825692093435 M -9.608875584033262 0.8687213211160945 L -9.849487915609025 2.583978067464487 L -9.849487915609025 2.583978067464487 L -8.243725833470794 1.9347260858987059 L -8.243725833470794 1.9347260858987059 L -9.608875584033264 0.8687213211160947 M -9.720766340571753 1.3096718440143247 L -11.111612765981748 1.5656918059786915 L -11.111612765981748 1.5656918059786915 L -10.855592804017382 2.9565382313886874 L -10.855592804017382 2.9565382313886874 L -9.464746378607385 2.700518269424321 L -9.464746378607385 2.700518269424321 L -9.720766340571751 1.309671844014325 M -12.86312755771635 1.5419526711905571 L -12.867351742716362 2.541943749281299 L -12.867351742716362 2.541943749281299 L -12.003446158031997 3.0455975398469666 L -12.003446158031997 3.0455975398469666 L -11.135316388347618 2.5492602523218912 L -11.135316388347618 2.5492602523218912 L -11.131092203347606 1.5492691742311488 L -11.131092203347606 1.5492691742311488 L -11.994997788031972 1.0456153836654818 L -11.994997788031972 1.0456153836654818 L -12.86312755771635 1.541952671190558 M -13.942894184753442 1.3672034990216884 L -14.907855389770754 1.629596091926934 L -14.907855389770754 1.629596091926934 L -15.163097341058599 2.5964733055909925 L -15.163097341058599 2.5964733055909925 L -14.453378087329131 3.3009579263498052 L -14.453378087329131 3.3009579263498052 L -13.48841688231182 3.0385653334445593 L -13.48841688231182 3.0385653334445593 L -13.233174931023974 2.071688119780501 L -13.233174931023974 2.071688119780501 L -13.942894184753444 1.3672034990216888 M -16.9595303705797 1.7852423386364331 L -16.226666774534454 2.7044142272632223 L -16.226666774534454 2.7044142272632223 L -15.126015054523908 2.291459263026288 L -15.126015054523908 2.291459263026288 L -15.1786384778266 1.117067170678076 L -15.1786384778266 1.117067170678076 L -16.311813262042584 0.8042079057247101 L -16.311813262042584 0.8042079057247101 L -16.959530370579696 1.7852423386364327 M -17.870373830509568 1.1922111808233702 L -18.397548636831367 2.2429503182069928 L -18.397548636831367 2.2429503182069928 L -17.56114230745608 3.069019603092387 L -17.56114230745608 3.069019603092387 L -16.517039961174817 2.5288193608302576 L -16.517039961174817 2.5288193608302576 L -16.70815555281477 1.3688879654959403 L -16.70815555281477 1.3688879654959403 L -17.870373830509568 1.1922111808233702 M -18.573375639924965 2.5954264159270255 L -19.299425126797644 1.0228959257259864 L -19.299425126797644 1.0228959257259864 L -20.298251736100998 2.4379384708629024 L -20.298251736100998 2.4379384708629024 L -18.573375639924965 2.595426415927025 M -20.158659128305032 2.0186853947197427 L -21.208221402410786 1.489171425098478 L -21.208221402410786 1.489171425098478 L -22.036151693041894 2.323735649772402 L -22.036151693041894 2.323735649772402 L -21.49827847886175 3.369038676036856 L -21.49827847886175 3.369038676036856 L -20.33792426022916 3.180507250137488 L -20.33792426022916 3.180507250137488 L -20.158659128305032 2.0186853947197427 M -22.900363329310803 1.5970252823187585 L -23.23345014497437 2.5399214448049063 L -23.23345014497437 2.5399214448049063 L -22.58342152296229 3.2998311700782943 L -22.58342152296229 3.2998311700782943 L -21.600306085286643 3.116844732865534 L -21.600306085286643 3.116844732865534 L -21.267219269623077 2.173948570379386 L -21.267219269623077 2.173948570379386 L -21.917247891635157 1.4140388451059986 L -21.917247891635157 1.4140388451059986 L -22.900363329310803 1.5970252823187594 M -24.083530675239594 2.979566934716808 L -24.04929662575349 1.2478544788351214 L -24.04929662575349 1.2478544788351214 L -25.56612062934002 2.0840631502465876 L -25.56612062934002 2.0840631502465876 L -24.083530675239594 2.9795669347168077 M -25.519264205741372 2.438293868489649 L -25.326741910672602 1.4570012689550083 L -25.326741910672602 1.4570012689550083 L -26.080305082880884 0.7996257708632496 L -26.080305082880884 0.7996257708632496 L -27.02639055015794 1.123542872306132 L -27.02639055015794 1.123542872306132 L -27.21891284522671 2.1048354718407727 L -27.21891284522671 2.1048354718407727 L -26.465349673018423 2.7622109699325312 L -26.465349673018423 2.7622109699325312 L -25.519264205741372 2.438293868489648 M -27.405741865161275 3.5119538865346827 L -26.534244751138772 2.7229933098893393 L -26.534244751138772 2.7229933098893393 L -27.01528342987563 1.650348074590547 L -27.01528342987563 1.650348074590547 L -28.184078797260856 1.7763774379506083 L -28.184078797260856 1.7763774379506083 L -28.425395381461485 2.9269131033864286 L -28.425395381461485 2.9269131033864286 L -27.405741865161275 3.511953886534682 M -28.586167590854426 1.9012524299403086 L -29.599884001359325 1.305983540846337 L -29.599884001359325 1.305983540846337 L -30.479273955602707 2.08613693577962 L -30.479273955602707 2.08613693577962 L -30.009050426185436 3.16356713938098 L -30.009050426185436 3.16356713938098 L -28.839046348452243 3.049302230779058 L -28.839046348452243 3.049302230779058 L -28.586167590854426 1.9012524299403093 M -0.6562329938832204 4.857550015548889 L 0.5155226393390641 4.7629204891739345 L 0.5155226393390641 4.7629204891739345 L 0.7876170155665031 3.619272526872814 L 0.7876170155665031 3.619272526872814 L -0.21597504499952247 3.007088741381117 L -0.21597504499952247 3.007088741381117 L -1.1083234254963088 3.772386316886794 L -1.1083234254963088 3.772386316886794 L -0.6562329938832206 4.857550015548889 M -3.130243729380458 3.858287474059819 L -1.7321923007557216 4.880761044828439 L -1.7321923007557216 4.880761044828439 L -1.5457299280842784 3.158776206457981 L -1.5457299280842784 3.158776206457981 L -3.130243729380458 3.8582874740598196 M -3.112405516670412 3.4744096465774166 L -3.568572105092043 2.5845152463209757 L -3.568572105092043 2.5845152463209757 L -4.567326556610453 2.534619900123568 L -4.567326556610453 2.534619900123568 L -5.109914419707233 3.3746189541826013 L -5.109914419707233 3.3746189541826013 L -4.653747831285602 4.264513354439042 L -4.653747831285602 4.264513354439042 L -3.654993379767191 4.314408700636449 L -3.654993379767191 4.314408700636449 L -3.112405516670413 3.4744096465774157 M -6.423408206902948 3.0058977181609805 L -6.884594595900253 4.087227050905511 L -6.884594595900253 4.087227050905511 L -5.998703719507057 4.859990511722211 L -5.998703719507057 4.859990511722211 L -4.990006658575328 4.256255263026398 L -4.990006658575328 4.256255263026398 L -5.252488466960589 3.1103628983093152 L -5.252488466960589 3.1103628983093152 L -6.423408206902948 3.0058977181609805 M -6.3547987877065815 3.4321652472260435 L -8.052955964991284 3.0911928125096075 L -8.052955964991284 3.0911928125096075 L -7.499168166803597 4.732326285015253 L -7.499168166803597 4.732326285015253 L -6.3547987877065815 3.432165247226043 M -8.208001149640873 3.1832216725887954 L -9.166119305544724 2.502064120639535 L -9.166119305544724 2.502064120639535 L -10.110013426743198 3.2027993767934304 L -10.110013426743198 3.2027993767934304 L -9.735253919521217 4.317035134161162 L -9.735253919521217 4.317035134161162 L -8.559745685252397 4.304935447541006 L -8.559745685252397 4.304935447541006 L -8.208001149640873 3.183221672588796 M -11.060727943135682 2.8299275384675884 L -11.302635002668557 4.545002164992089 L -11.302635002668557 4.545002164992089 L -9.696383276945793 3.896962510640104 L -9.696383276945793 3.896962510640104 L -11.060727943135682 2.8299275384675884 M -11.684601070753478 2.690196325124736 L -13.071548251722408 2.966561151400326 L -13.071548251722408 2.966561151400326 L -12.795183425446817 4.353508332369256 L -12.795183425446817 4.353508332369256 L -11.408236244477887 4.077143506093666 L -11.408236244477887 4.077143506093666 L -11.684601070753478 2.690196325124736 M -13.763674129882483 3.073766973418901 L -15.015743749385699 3.7312786979661334 L -15.015743749385699 3.7312786979661334 L -14.358232024838467 4.983348317469348 L -14.358232024838467 4.983348317469348 L -13.106162405335251 4.325836592922116 L -13.106162405335251 4.325836592922116 L -13.763674129882483 3.073766973418901 M -16.39005822466139 3.7948559936731074 L -15.530264377386487 4.917689258315824 L -15.530264377386487 4.917689258315824 L -14.40743111274377 4.057895411040921 L -14.40743111274377 4.057895411040921 L -15.267224960018673 2.935062146398204 L -15.267224960018673 2.935062146398204 L -16.39005822466139 3.794855993673107 M -18.23447357925637 4.550358707965071 L -17.127164361819826 4.945114718977153 L -17.127164361819826 4.945114718977153 L -16.40955171898419 4.013987388214836 L -16.40955171898419 4.013987388214836 L -17.07335193239167 3.0437630389376773 L -17.07335193239167 3.0437630389376773 L -18.201215668852566 3.3752587451339604 L -18.201215668852566 3.3752587451339604 L -18.23447357925637 4.550358707965071 M -18.63696380596524 3.07006647909053 L -20.239000944628415 3.7284561861363685 L -20.239000944628415 3.7284561861363685 L -18.867800163404937 4.786666192501892 L -18.867800163404937 4.786666192501892 L -18.63696380596524 3.0700664790905297 M -21.77040101769116 2.7118182729856093 L -22.262260249115425 3.582493009303789 L -22.262260249115425 3.582493009303789 L -21.754163424742696 4.443792966962181 L -21.754163424742696 4.443792966962181 L -20.754207368945703 4.434418188302393 L -20.754207368945703 4.434418188302393 L -20.26234813752144 3.563743451984213 L -20.26234813752144 3.563743451984213 L -20.770444961894167 2.7024434943258213 L -20.770444961894167 2.7024434943258213 L -21.77040101769116 2.71181827298561 M -22.354682593436948 4.595866921888522 L -21.89662043224538 3.7069467587217106 L -21.89662043224538 3.7069467587217106 L -22.437416794888264 2.8657932090340053 L -22.437416794888264 2.8657932090340053 L -23.436275318722714 2.913559822513111 L -23.436275318722714 2.913559822513111 L -23.89433747991428 3.8024799856799216 L -23.89433747991428 3.8024799856799216 L -23.353541117271398 4.643633535367627 L -23.353541117271398 4.643633535367627 L -22.354682593436948 4.595866921888521 M -24.132127862211863 2.744883729174074 L -25.22568930693534 3.176264509766356 L -25.22568930693534 3.176264509766356 L -25.153350875361333 4.349607239989507 L -25.153350875361333 4.349607239989507 L -24.015081821232265 4.643392147127732 L -24.015081821232265 4.643392147127732 L -23.38393128901231 3.6516184748977345 L -23.38393128901231 3.6516184748977345 L -24.132127862211863 2.7448837291740746 M -26.11209646987792 4.4414225769286295 L -24.71580936088142 4.216962537611617 L -24.71580936088142 4.216962537611617 L -24.94026940019843 2.8206754286151168 L -24.94026940019843 2.8206754286151168 L -26.33655650919493 3.0451354679321283 L -26.33655650919493 3.0451354679321283 L -26.11209646987792 4.441422576928629 M -26.526876143608142 3.781080536177488 L -27.375061751991986 2.9671105213854014 L -27.375061751991986 2.9671105213854014 L -28.411297006003725 3.522252403784246 L -28.411297006003725 3.522252403784246 L -28.203540004940013 4.679318970477415 L -28.203540004940013 4.679318970477415 L -27.038903862870153 4.8392835535410965 L -27.038903862870153 4.8392835535410965 L -26.526876143608142 3.7810805361774884 M -30.438569176150054 3.3246712083349914 L -30.126610049688374 4.704048424116544 L -30.126610049688374 4.704048424116544 L -28.74723283390682 4.392089297654866 L -28.74723283390682 4.392089297654866 L -29.0591919603685 3.012712081873314 L -29.0591919603685 3.012712081873314 L -30.438569176150054 3.3246712083349914 M -1.7799108889901842 4.973354363795835 L -0.42648208379408337 6.0542014710526635 L -0.42648208379408337 6.0542014710526635 L -0.16715543390079646 4.341674189910806 L -0.16715543390079646 4.341674189910806 L -1.7799108889901842 4.973354363795836 M -2.4699430059252627 4.509926546980841 L -3.5264873964406793 5.44998715719191 L -3.5264873964406793 5.44998715719191 L -2.58642678622961 6.506531547707327 L -2.58642678622961 6.506531547707327 L -1.5298823957141936 5.566470937496258 L -1.5298823957141936 5.566470937496258 L -2.4699430059252623 4.509926546980841 M -5.199290985904821 4.8427027932772875 L -4.965045112654942 5.814880179799625 L -4.965045112654942 5.814880179799625 L -4.005991862316896 6.098105996094729 L -4.005991862316896 6.098105996094729 L -3.2811844852287275 5.409154425867496 L -3.2811844852287275 5.409154425867496 L -3.515430358478606 4.436977039345159 L -3.515430358478606 4.436977039345159 L -4.474483608816653 4.153751223050055 L -4.474483608816653 4.153751223050055 L -5.19929098590482 4.842702793277288 M -6.168856438267814 4.548107700153237 L -5.811194069869921 6.242828217003142 L -5.811194069869921 6.242828217003142 L -4.522354234162156 5.085723261567906 L -4.522354234162156 5.085723261567906 L -6.168856438267814 4.5481077001532375 M -5.943712791055484 5.752456538536316 L -6.840244153964143 4.658732846134464 L -6.840244153964143 4.658732846134464 L -7.933967846365995 5.5552642090431235 L -7.933967846365995 5.5552642090431235 L -7.037436483457336 6.6489879014449755 L -7.037436483457336 6.6489879014449755 L -5.943712791055484 5.752456538536316 M -9.359703208871004 6.614369445352542 L -8.427639177706508 6.252075860245949 L -8.427639177706508 6.252075860245949 L -8.27536261045471 5.2637379387504675 L -8.27536261045471 5.2637379387504675 L -9.055150074367408 4.63769360236158 L -9.055150074367408 4.63769360236158 L -9.987214105531903 4.999987187468173 L -9.987214105531903 4.999987187468173 L -10.139490672783701 5.988325108963655 L -10.139490672783701 5.988325108963655 L -9.359703208871004 6.6143694453525415 M -11.113550421765646 4.6725183962502195 L -11.469437582653589 6.04122009081888 L -11.469437582653589 6.04122009081888 L -10.100735888084929 6.397107251706822 L -10.100735888084929 6.397107251706822 L -9.744848727196986 5.028405557138162 L -9.744848727196986 5.028405557138162 L -11.113550421765646 4.6725183962502195 M -13.34614054946067 5.131944636736044 L -13.106486321954675 6.282827716153154 L -13.106486321954675 6.282827716153154 L -11.937874240708048 6.410545431504354 L -11.937874240708048 6.410545431504354 L -11.455286482339874 5.33859624113977 L -11.455286482339874 5.33859624113977 L -12.325642926360349 4.548377491930326 L -12.325642926360349 4.548377491930326 L -13.34614054946067 5.131944636736043 M -13.874219708201416 4.855619345626024 L -14.58357065741135 5.560474813686651 L -14.58357065741135 5.560474813686651 L -14.327823390679443 6.527218489931372 L -14.327823390679443 6.527218489931372 L -13.362725174737601 6.789106698115467 L -13.362725174737601 6.789106698115467 L -12.653374225527667 6.08425123005484 L -12.653374225527667 6.08425123005484 L -12.909121492259574 5.1175075538101185 L -12.909121492259574 5.1175075538101185 L -13.874219708201416 4.855619345626025 M -14.434921800137037 5.302656237970191 L -15.534463752264674 4.413270216317419 L -15.534463752264674 4.413270216317419 L -16.423849773917446 5.512812168445056 L -16.423849773917446 5.512812168445056 L -15.324307821789809 6.402198190097828 L -15.324307821789809 6.402198190097828 L -14.434921800137037 5.302656237970191 M -17.68428035713644 4.887183046851612 L -18.358727671021033 6.48252652735788 L -18.358727671021033 6.48252652735788 L -16.639896032198426 6.268943294442981 L -16.639896032198426 6.268943294442981 L -17.68428035713644 4.887183046851612 M -19.31572699426655 6.854865486190205 L -18.380633891668513 6.142428190195897 L -18.380633891668513 6.142428190195897 L -18.769242364450008 5.032946569738605 L -18.769242364450008 5.032946569738605 L -19.9445087115432 5.0596865143969945 L -19.9445087115432 5.0596865143969945 L -20.282254787099227 6.185694329510463 L -20.282254787099227 6.185694329510463 L -19.31572699426655 6.854865486190204 M -20.023957926106867 5.098803910919953 L -21.129777468854808 4.217235343605567 L -21.129777468854808 4.217235343605567 L -22.011346036169193 5.323054886353505 L -22.011346036169193 5.323054886353505 L -20.905526493421256 6.2046234536678915 L -20.905526493421256 6.2046234536678915 L -20.023957926106867 5.098803910919953 M -23.699083421650673 6.518249797212279 L -22.00835697519376 6.142159271871407 L -22.00835697519376 6.142159271871407 L -23.17942414749005 4.8659924810599655 L -23.17942414749005 4.8659924810599655 L -23.699083421650673 6.518249797212279 M -23.221920571895588 5.761312943469436 L -23.551329277250257 4.3859984685813975 L -23.551329277250257 4.3859984685813975 L -24.926643752138297 4.715407173936066 L -24.926643752138297 4.715407173936066 L -24.597235046783627 6.090721648824105 L -24.597235046783627 6.090721648824105 L -23.221920571895588 5.761312943469436 M -24.722587430364836 4.748141673932921 L -26.114315425893885 4.496958102693291 L -26.114315425893885 4.496958102693291 L -26.365498997133518 5.888686098222341 L -26.365498997133518 5.888686098222341 L -24.97377100160447 6.139869669461971 L -24.97377100160447 6.139869669461971 L -24.722587430364836 4.748141673932921 M -27.033741869030955 4.423476779913833 L -28.40029196133694 4.787538375277177 L -28.40029196133694 4.787538375277177 L -28.036230365973594 6.154088467583162 L -28.036230365973594 6.154088467583162 L -26.66968027366761 5.790026872219819 L -26.66968027366761 5.790026872219819 L -27.033741869030955 4.423476779913833 M -29.823129783280443 6.9740360322967145 L -28.768582022137142 5.600016738593873 L -28.768582022137142 5.600016738593873 L -30.485791516345405 5.373761234791194 L -30.485791516345405 5.373761234791194 L -29.82312978328044 6.9740360322967145 M 0.7660463425168 6.903281321951792 L -0.9174906378923127 6.4962146989096095 L -0.9174906378923127 6.4962146989096095 L -0.4282521842750301 8.157733803675537 L -0.4282521842750301 8.157733803675537 L 0.7660463425168 6.903281321951792 M -1.4925062575113535 7.882855439031784 L -1.7792362036454197 6.924843989209834 L -1.7792362036454197 6.924843989209834 L -2.752263429374623 6.694153681676704 L -2.752263429374623 6.694153681676704 L -3.4385607089697596 7.421474823965525 L -3.4385607089697596 7.421474823965525 L -3.1518307628356927 8.379486273787474 L -3.1518307628356927 8.379486273787474 L -2.1788035371064898 8.610176581320605 L -2.1788035371064898 8.610176581320605 L -1.492506257511354 7.8828554390317835 M -2.893626114970649 7.827477647185785 L -3.997611477920135 6.492855484027503 L -3.997611477920135 6.492855484027503 L -4.601435494194203 8.116245935327083 L -4.601435494194203 8.116245935327083 L -2.893626114970649 7.827477647185784 M -6.23771832210436 7.210611556863233 L -5.438105207350873 8.377067242568533 L -5.438105207350873 8.377067242568533 L -4.271649521645571 7.577454127815046 L -4.271649521645571 7.577454127815046 L -5.071262636399059 6.410998442109745 L -5.071262636399059 6.410998442109745 L -6.23771832210436 7.210611556863232 M -7.806587801559042 7.702107321416914 L -6.4647060022054355 8.148597227868924 L -6.4647060022054355 8.148597227868924 L -6.018216095753424 6.806715428515317 L -6.018216095753424 6.806715428515317 L -7.360097895107032 6.360225522063306 L -7.360097895107032 6.360225522063306 L -7.806587801559042 7.702107321416913 M -8.298039534368966 5.961099919246651 L -9.598560503964164 6.516658383895661 L -9.598560503964164 6.516658383895661 L -9.043002039315153 7.817179353490859 L -9.043002039315153 7.817179353490859 L -7.742481069719955 7.26162088884185 L -7.742481069719955 7.26162088884185 L -8.298039534368966 5.961099919246651 M -9.241502801600458 6.736403350668183 L -9.927246064865384 6.008559839405789 L -9.927246064865384 6.008559839405789 L -10.900448667230746 6.238509170236059 L -10.900448667230746 6.238509170236059 L -11.187908006331181 7.196302012328721 L -11.187908006331181 7.196302012328721 L -10.502164743066254 7.924145523591115 L -10.502164743066254 7.924145523591115 L -9.528962140700893 7.694196192760845 L -9.528962140700893 7.694196192760845 L -9.24150280160046 6.736403350668183 M -11.692541490390344 6.714337802863687 L -12.364772199987957 5.973996075636395 L -12.364772199987957 5.973996075636395 L -13.342042298047247 6.185994083738321 L -13.342042298047247 6.185994083738321 L -13.647081686508926 7.1383338190675385 L -13.647081686508926 7.1383338190675385 L -12.974850976911313 7.878675546294831 L -12.974850976911313 7.878675546294831 L -11.997580878852023 7.666677538192904 L -11.997580878852023 7.666677538192904 L -11.692541490390346 6.714337802863686 M -13.730281685350171 6.021023335207776 L -14.786974409750371 6.9609172048546 L -14.786974409750371 6.9609172048546 L -13.847080540103548 8.017609929254801 L -13.847080540103548 8.017609929254801 L -12.790387815703347 7.077716059607977 L -12.790387815703347 7.077716059607977 L -13.730281685350171 6.021023335207776 M -15.609232387854464 8.285463169298772 L -14.471263543185119 7.4458043644489 L -14.471263543185119 7.4458043644489 L -15.31092234803499 6.307835519779555 L -15.31092234803499 6.307835519779555 L -16.448891192704334 7.147494324629427 L -16.448891192704334 7.147494324629427 L -15.609232387854464 8.285463169298772 M -18.873879248334188 6.9496407189227 L -18.072551787060583 7.809780423307342 L -18.072551787060583 7.809780423307342 L -17.006886512688503 7.313470505768325 L -17.006886512688503 7.313470505768325 L -17.14959661376968 6.146594403390911 L -17.14959661376968 6.146594403390911 L -18.303461581147864 5.921735229000685 L -18.303461581147864 5.921735229000685 L -18.873879248334188 6.949640718922699 M -18.42705647221566 6.752138093189114 L -19.225558804265496 6.150146377539326 L -19.225558804265496 6.150146377539326 L -20.146150088910908 6.540673824250708 L -20.146150088910908 6.540673824250708 L -20.268239041506483 7.533192986611876 L -20.268239041506483 7.533192986611876 L -19.469736709456647 8.135184702261663 L -19.469736709456647 8.135184702261663 L -18.549145424811236 7.7446572555502815 L -18.549145424811236 7.7446572555502815 L -18.42705647221566 6.752138093189114 M -22.22666293378936 7.564801983588273 L -20.930480436576236 8.130408679021018 L -20.930480436576236 8.130408679021018 L -20.364873741143487 6.834226181807894 L -20.364873741143487 6.834226181807894 L -21.66105623835661 6.268619486375149 L -21.66105623835661 6.268619486375149 L -22.22666293378936 7.564801983588273 M -23.972516934869603 6.9066823334241425 L -23.06426063337978 7.990689017353737 L -23.06426063337978 7.990689017353737 L -21.980253949450187 7.082432715863917 L -21.980253949450187 7.082432715863917 L -22.88851025094001 5.998426031934323 L -22.88851025094001 5.998426031934323 L -23.972516934869603 6.9066823334241425 M -23.210322466431755 7.484862634860837 L -24.261358990091082 6.538647952067278 L -24.261358990091082 6.538647952067278 L -25.207573672884642 7.589684475726603 L -25.207573672884642 7.589684475726603 L -24.156537149225315 8.535899158520165 L -24.156537149225315 8.535899158520165 L -23.210322466431755 7.484862634860839 M -24.928719358154364 7.997976027892751 L -24.74034713729132 7.01587832073367 L -24.74034713729132 7.01587832073367 L -25.49668259025801 6.361694338519438 L -25.49668259025801 6.361694338519438 L -26.441390264087747 6.68960806346429 L -26.441390264087747 6.68960806346429 L -26.629762484950792 7.671705770623371 L -26.629762484950792 7.671705770623371 L -25.8734270319841 8.3258897528376 L -25.8734270319841 8.3258897528376 L -24.928719358154364 7.997976027892749 M -28.3306699051893 7.326966616644245 L -27.319706129910085 7.926898493046309 L -27.319706129910085 7.926898493046309 L -26.43673202226599 7.150803952104152 L -26.43673202226599 7.150803952104152 L -26.901987787835047 6.071219270916586 L -26.901987787835047 6.071219270916586 L -28.07250577206267 6.180093785151109 L -28.07250577206267 6.180093785151109 L -28.3306699051893 7.326966616644244 M -28.731686424485744 7.201058590813461 L -29.278605882469385 6.363873362516354 L -29.278605882469385 6.363873362516354 L -30.277089286839576 6.418926892805649 L -30.277089286839576 6.418926892805649 L -30.728653233226126 7.311165651392052 L -30.728653233226126 7.311165651392052 L -30.181733775242485 8.14835087968916 L -30.181733775242485 8.14835087968916 L -29.183250370872294 8.093297349399863 L -29.183250370872294 8.093297349399863 L -28.731686424485744 7.20105859081346 M -1.1503833525971607 8.653116848571559 L -1.244063938267401 9.64871915264105 L -1.244063938267401 9.64871915264105 L -0.42868734371202216 10.227650071707629 L -0.42868734371202216 10.227650071707629 L 0.48036983651359716 9.810978686704717 L 0.48036983651359716 9.810978686704717 L 0.5740504221838372 8.815376382635224 L 0.5740504221838372 8.815376382635224 L -0.2413261723715418 8.236445463568646 L -0.2413261723715418 8.236445463568646 L -1.1503833525971605 8.65311684857156 M -3.284917754113805 9.86328031325025 L -2.3630473874617857 10.250778735297192 L -2.3630473874617857 10.250778735297192 L -1.5665287267167387 9.646164789803942 L -1.5665287267167387 9.646164789803942 L -1.691880432623711 8.654052422263746 L -1.691880432623711 8.654052422263746 L -2.6137507992757305 8.266554000216802 L -2.6137507992757305 8.266554000216802 L -3.4102694600207775 8.871167945710054 L -3.4102694600207775 8.871167945710054 L -3.284917754113804 9.86328031325025 M -4.736714777978014 8.780048806738147 L -3.6151088557556763 9.641443115539742 L -3.6151088557556763 9.641443115539742 L -2.7537145469540802 8.519837193317404 L -2.7537145469540802 8.519837193317404 L -3.875320469176418 7.65844288451581 L -3.875320469176418 7.65844288451581 L -4.736714777978014 8.780048806738145 M -4.8228228231867725 9.42339257837429 L -5.304353070623865 7.759623177043935 L -5.304353070623865 7.759623177043935 L -6.504454514496634 9.00852530468024 L -6.504454514496634 9.00852530468024 L -4.822822823186772 9.42339257837429 M -7.6465593171653845 9.616676566696436 L -6.007517247424825 9.056729164148145 L -6.007517247424825 9.056729164148145 L -7.311966957685037 7.917250795155539 L -7.311966957685037 7.917250795155539 L -7.6465593171653845 9.616676566696436 M -9.760261849674539 9.420961490042927 L -8.110602722023568 9.948810675471716 L -8.110602722023568 9.948810675471716 L -8.4783014819008 8.256239370626705 L -8.4783014819008 8.256239370626705 L -9.760261849674539 9.42096149004293 M -11.578102990760271 8.420676536826226 L -10.7091076554007 9.536403702007439 L -10.7091076554007 9.536403702007439 L -9.593380490219488 8.667408366647868 L -9.593380490219488 8.667408366647868 L -10.462375825579059 7.551681201466654 L -10.462375825579059 7.551681201466654 L -11.578102990760271 8.420676536826226 M -13.488474951588701 9.401812595035906 L -12.127739002802935 9.78703678649083 L -12.127739002802935 9.78703678649083 L -11.742514811348011 8.426300837705064 L -11.742514811348011 8.426300837705064 L -13.103250760133777 8.041076646250138 L -13.103250760133777 8.041076646250138 L -13.488474951588701 9.401812595035905 M -14.363529157533293 8.08953757901471 L -14.849364062970814 9.160018992168911 L -14.849364062970814 9.160018992168911 L -13.981406981658406 9.952872393656065 L -13.981406981658406 9.952872393656065 L -12.959145099193657 9.37240133071689 L -12.959145099193657 9.37240133071689 L -13.195309591739402 8.220797082847547 L -13.195309591739402 8.220797082847547 L -14.363529157533291 8.08953757901471 M -16.00925861241987 7.884387141673903 L -16.439480094084285 9.231572903443405 L -16.439480094084285 9.231572903443405 L -15.092294332314784 9.661794385107823 L -15.092294332314784 9.661794385107823 L -14.662072850650368 8.314608623338321 L -14.662072850650368 8.314608623338321 L -16.00925861241987 7.884387141673903 M -16.173387610749845 8.985225393615364 L -17.317019417881593 7.684415534444326 L -17.317019417881593 7.684415534444326 L -17.871737897851094 9.325234661581842 L -17.871737897851094 9.325234661581842 L -16.173387610749845 8.985225393615362 M -18.47927602916091 8.277621837955984 L -19.37423680918276 7.515380922317902 L -19.37423680918276 7.515380922317902 L -20.375729089312955 8.13099380724619 L -20.375729089312955 8.13099380724619 L -20.099724577882196 9.273704409682333 L -20.099724577882196 9.273704409682333 L -18.92765212863948 9.364325516364449 L -18.92765212863948 9.364325516364449 L -18.47927602916091 8.277621837955984 M -21.05589470763101 9.428425837359859 L -20.05735189297103 9.374460595852685 L -20.05735189297103 9.374460595852685 L -19.604815755707616 8.482714530837141 L -19.604815755707616 8.482714530837141 L -20.150822433104178 7.64493370732877 L -20.150822433104178 7.64493370732877 L -21.149365247764155 7.698898948835943 L -21.149365247764155 7.698898948835943 L -21.60190138502757 8.590645013851487 L -21.60190138502757 8.590645013851487 L -21.05589470763101 9.428425837359859 M -23.264589115714667 8.410493086837196 L -23.68383363949005 10.091038840241234 L -23.68383363949005 10.091038840241234 L -22.0188160629324 9.613842371526207 L -22.0188160629324 9.613842371526207 L -23.264589115714667 8.410493086837196 M -24.52187944904572 10.383126859014695 L -23.58887115803685 10.023271987005566 L -23.58887115803685 10.023271987005566 L -23.434010473367916 9.035335669045816 L -23.434010473367916 9.035335669045816 L -24.212158079707855 8.407254223095194 L -24.212158079707855 8.407254223095194 L -25.145166370716726 8.767109095104324 L -25.145166370716726 8.767109095104324 L -25.30002705538566 9.755045413064074 L -25.30002705538566 9.755045413064074 L -24.52187944904572 10.383126859014695 M -26.104189151836728 8.08478466137187 L -26.955468588088895 8.895518484931923 L -26.955468588088895 8.895518484931923 L -26.447474714975066 9.955663869362244 L -26.447474714975066 9.955663869362244 L -25.28223779906185 9.800135926396456 L -25.28223779906185 9.800135926396456 L -25.07007565319521 8.64386898701292 L -25.07007565319521 8.64386898701292 L -26.104189151836728 8.08478466137187 M -26.956557464674496 8.251610290726317 L -28.26599898371018 9.385348756257732 L -28.26599898371018 9.385348756257732 L -26.629431911794544 9.952489143747009 L -26.629431911794544 9.952489143747009 L -26.956557464674496 8.251610290726317 M -28.845337584854683 8.86083396321038 L -29.634610565457116 8.24679148740683 L -29.634610565457116 8.24679148740683 L -30.5610234388069 8.623300701227425 L -30.5610234388069 8.623300701227425 L -30.698163331554248 9.613852390851568 L -30.698163331554248 9.613852390851568 L -29.908890350951815 10.227894866655118 L -29.908890350951815 10.227894866655118 L -28.982477477602032 9.851385652834523 L -28.982477477602032 9.851385652834523 L -28.845337584854686 8.86083396321038 M -0.7361524386119694 9.903128400593985 L -1.8065229005458825 11.264857842964746 L -1.8065229005458825 11.264857842964746 L -0.09204537940462998 11.51096113327462 L -0.09204537940462998 11.51096113327462 L -0.73615243861197 9.903128400593985 M -2.1208865640196612 11.412863806315631 L -0.8851971494780383 10.725061748460481 L -0.8851971494780383 10.725061748460481 L -1.572999207333189 9.489372333918858 L -1.572999207333189 9.489372333918858 L -2.8086886218748126 10.177174391774008 L -2.8086886218748126 10.177174391774008 L -2.1208865640196617 11.412863806315631 M -4.356106051169815 9.83280948083814 L -5.155923451976334 10.99912510080004 L -5.155923451976334 10.99912510080004 L -3.9896078320144372 11.798942501606557 L -3.9896078320144372 11.798942501606557 L -3.1897904312079177 10.632626881644661 L -3.1897904312079177 10.632626881644661 L -4.356106051169815 9.83280948083814 M -5.429281271097847 9.506974698342209 L -5.879914581684034 11.179377048074512 L -5.879914581684034 11.179377048074512 L -4.206255006173977 10.733435767967482 L -4.206255006173977 10.733435767967482 L -5.429281271097847 9.506974698342209 M -6.97564736429154 11.780494715791802 L -6.154385112849221 11.209943829055227 L -6.154385112849221 11.209943829055227 L -6.237865549193673 10.213434412768688 L -6.237865549193673 10.213434412768688 L -7.142608236980445 9.787475883218724 L -7.142608236980445 9.787475883218724 L -7.9638704884227645 10.358026769955298 L -7.9638704884227645 10.358026769955298 L -7.880390052078312 11.354536186241837 L -7.880390052078312 11.354536186241837 L -6.9756473642915395 11.780494715791802 M -8.26174545594168 10.83354270332199 L -8.266892220597583 9.657983465314956 L -8.266892220597583 9.657983465314956 L -9.386505931939862 9.299610546940153 L -9.386505931939862 9.299610546940153 L -10.073318495163901 10.253683140744068 L -10.073318495163901 10.253683140744068 L -9.378178291794514 11.201705349824463 L -9.378178291794514 11.201705349824463 L -8.26174545594168 10.833542703321992 M -11.47434796313531 10.140575572023602 L -11.438906541373075 11.13994732748974 L -11.438906541373075 11.13994732748974 L -10.555704502433633 11.608940033630475 L -10.555704502433633 11.608940033630475 L -9.707943885256425 11.078560984305073 L -9.707943885256425 11.078560984305073 L -9.74338530701866 10.079189228838933 L -9.74338530701866 10.079189228838933 L -10.626587345958102 9.6101965226982 L -10.626587345958102 9.6101965226982 L -11.47434796313531 10.140575572023602 M -12.955649211416933 11.197838055373804 L -12.095810569445263 11.708403927492487 L -12.095810569445263 11.708403927492487 L -11.223728232899289 11.219044756448849 L -11.223728232899289 11.219044756448849 L -11.211484538324989 10.219119713286528 L -11.211484538324989 10.219119713286528 L -12.07132318029666 9.708553841167845 L -12.07132318029666 9.708553841167845 L -12.943405516842633 10.197913012211483 L -12.943405516842633 10.197913012211483 L -12.955649211416933 11.197838055373804 M -14.239934750547139 10.143908313304193 L -14.377459402022232 11.551419226312207 L -14.377459402022232 11.551419226312207 L -12.969948489014218 11.6889438777873 L -12.969948489014218 11.6889438777873 L -12.832423837539125 10.281432964779286 L -12.832423837539125 10.281432964779286 L -14.239934750547139 10.143908313304193 M -16.109867644400367 9.701374306739313 L -16.78210954290102 10.441705874282018 L -16.78210954290102 10.441705874282018 L -16.47708454743581 11.394050219643216 L -16.47708454743581 11.394050219643216 L -15.499817653469945 11.606062997461708 L -15.499817653469945 11.606062997461708 L -14.827575754969294 10.865731429919002 L -14.827575754969294 10.865731429919002 L -15.132600750434506 9.913387084557804 L -15.132600750434506 9.913387084557804 L -16.109867644400367 9.701374306739313 M -18.62476010699592 10.662526142485449 L -17.618979235253228 12.072634236936546 L -17.618979235253228 12.072634236936546 L -16.900680239247862 10.496548404141366 L -16.900680239247862 10.496548404141366 L -18.62476010699592 10.662526142485449 M -18.731712082026604 11.196477729981074 L -18.516792670737566 9.798690318873373 L -18.516792670737566 9.798690318873373 L -19.914580081845266 9.583770907584332 L -19.914580081845266 9.583770907584332 L -20.129499493134304 10.981558318692034 L -20.129499493134304 10.981558318692034 L -18.731712082026604 11.196477729981074 M -20.07228697795143 11.391104650142351 L -19.73520242441285 10.449630272495408 L -19.73520242441285 10.449630272495408 L -20.382000875697955 9.686969297084193 L -20.382000875697955 9.686969297084193 L -21.365883880521643 9.865782699319917 L -21.365883880521643 9.865782699319917 L -21.70296843406022 10.80725707696686 L -21.70296843406022 10.80725707696686 L -21.056169982775113 11.569918052378076 L -21.056169982775113 11.569918052378076 L -20.07228697795143 11.39110465014235 M -23.62608330729878 11.075408662672151 L -22.82740891066715 11.938012406818444 L -22.82740891066715 11.938012406818444 L -21.76022003728489 11.444987133856495 L -21.76022003728489 11.444987133856495 L -21.899335437750576 10.277677013707022 L -21.899335437750576 10.277677013707022 L -23.052502356979183 10.049264957004874 L -23.052502356979183 10.049264957004874 L -23.62608330729878 11.075408662672151 M -23.82085122976841 11.222956680502648 L -23.825623532732035 9.808751170286957 L -23.825623532732035 9.808751170286957 L -25.23982904294773 9.81352347325058 L -25.23982904294773 9.81352347325058 L -25.235056739984106 11.227728983466271 L -25.235056739984106 11.227728983466271 L -23.82085122976841 11.222956680502648 M -25.712639669518676 11.936435024391855 L -25.263290183479732 10.263687273116567 L -25.263290183479732 10.263687273116567 L -26.936606973226898 10.710913078667003 L -26.936606973226898 10.710913078667003 L -25.712639669518676 11.936435024391855 M -27.67941091633736 11.329953687882275 L -26.465726325102974 10.604026891986008 L -26.465726325102974 10.604026891986008 L -27.19165312099924 9.390342300751621 L -27.19165312099924 9.390342300751621 L -28.405337712233628 10.116269096647887 L -28.405337712233628 10.116269096647887 L -27.67941091633736 11.329953687882275 M -30.417057318093576 10.938975203882704 L -28.707412416974865 11.216669842071484 L -28.707412416974865 11.216669842071484 L -29.32174425636801 9.597226607157756 L -29.32174425636801 9.597226607157756 L -30.417057318093576 10.938975203882704 M -1.238259413130658 12.709961771749043 L 0.174647378173717 12.649180203112037 L 0.174647378173717 12.649180203112037 L 0.11386580953671022 11.236273411807662 L 0.11386580953671022 11.236273411807662 L -1.2990409817676647 11.297054980444669 L -1.2990409817676647 11.297054980444669 L -1.2382594131306581 12.709961771749043 M -0.9181381471818875 12.230966475845948 L -1.5586183190704712 11.462991769610404 L -1.5586183190704712 11.462991769610404 L -2.543944010078636 11.63367651596837 L -2.543944010078636 11.63367651596837 L -2.8887895291982164 12.572335968561879 L -2.8887895291982164 12.572335968561879 L -2.2483093573096324 13.340310674797422 L -2.2483093573096324 13.340310674797422 L -1.2629836663014677 13.169625928439457 L -1.2629836663014677 13.169625928439457 L -0.9181381471818884 12.230966475845948 M -5.1252024326202 12.679722080552098 L -3.743502598000283 12.981227581349835 L -3.743502598000283 12.981227581349835 L -3.4419970972025484 11.599527746729917 L -3.4419970972025484 11.599527746729917 L -4.823696931822465 11.29802224593218 L -4.823696931822465 11.29802224593218 L -5.125202432620201 12.679722080552098 M -6.275669097939041 13.018853064892268 L -5.004417839717572 13.63846603963564 L -5.004417839717572 13.63846603963564 L -4.384804864974198 12.367214781414171 L -4.384804864974198 12.367214781414171 L -5.6560561231956665 11.747601806670799 L -5.6560561231956665 11.747601806670799 L -6.275669097939041 13.018853064892266 M -7.078137239754237 11.157345269450737 L -8.406851655501223 11.641615856402028 L -8.406851655501223 11.641615856402028 L -7.922581068549932 12.970330272149013 L -7.922581068549932 12.970330272149013 L -6.593866652802946 12.486059685197722 L -6.593866652802946 12.486059685197722 L -7.078137239754237 11.157345269450737 M -9.804904433349794 11.393474057144312 L -9.82017409722787 12.393357469030443 L -9.82017409722787 12.393357469030443 L -8.96188449365086 12.906523091799173 L -8.96188449365086 12.906523091799173 L -8.088325226195774 12.41980530268177 L -8.088325226195774 12.41980530268177 L -8.073055562317698 11.419921890795639 L -8.073055562317698 11.419921890795639 L -8.931345165894708 10.90675626802691 L -8.931345165894708 10.90675626802691 L -9.804904433349794 11.393474057144314 M -10.054240296416836 11.859704336382178 L -11.45003920098562 11.632228144211254 L -11.45003920098562 11.632228144211254 L -11.677515393156543 13.028027048780038 L -11.677515393156543 13.028027048780038 L -10.28171648858776 13.255503240950961 L -10.28171648858776 13.255503240950961 L -10.054240296416836 11.859704336382178 M -12.30940130603848 11.367746319867999 L -13.294008797965402 11.542526429838711 L -13.294008797965402 11.542526429838711 L -13.63494852861799 12.482611585589265 L -13.63494852861799 12.482611585589265 L -12.991280767343655 13.247916631369106 L -12.991280767343655 13.247916631369106 L -12.006673275416732 13.073136521398395 L -12.006673275416732 13.073136521398395 L -11.665733544764144 12.133051365647841 L -11.665733544764144 12.133051365647841 L -12.309401306038481 11.367746319868 M -14.170274274860393 11.295418981174448 L -14.969354599824332 12.832126706884033 L -14.969354599824332 12.832126706884033 L -13.238986508686052 12.755796705112335 L -13.238986508686052 12.755796705112335 L -14.170274274860393 11.295418981174448 M -16.082111057525978 12.974800446236582 L -14.908806212903594 13.047750791237469 L -14.908806212903594 13.047750791237469 L -14.476855175353746 11.95441446950947 L -14.476855175353746 11.95441446950947 L -15.383199597294542 11.205745116545886 L -15.383199597294542 11.205745116545886 L -16.37530229311768 11.836378331807001 L -16.37530229311768 11.836378331807001 L -16.082111057525978 12.974800446236582 M -18.607593714209628 12.412034505247426 L -17.717282828500345 13.510827719090479 L -17.717282828500345 13.510827719090479 L -16.618489614657285 12.620516833381192 L -16.618489614657285 12.620516833381192 L -17.508800500366576 11.52172361953814 L -17.508800500366576 11.52172361953814 L -18.607593714209628 12.412034505247426 M -19.409920270165962 11.338777679194312 L -19.774029000841093 12.456539211676196 L -19.774029000841093 12.456539211676196 L -18.823490397289046 13.148234501820223 L -18.823490397289046 13.148234501820223 L -17.871916501999888 12.457964168505566 L -17.871916501999888 12.457964168505566 L -18.234350095456104 11.339658350947364 L -18.234350095456104 11.339658350947364 L -19.409920270165962 11.338777679194312 M -19.953360886413854 11.580758413804565 L -21.1140302701028 11.3941770829667 L -21.1140302701028 11.3941770829667 L -21.650146225025754 12.440382461526356 L -21.650146225025754 12.440382461526356 L -20.820814723390303 13.27355427552704 L -20.820814723390303 13.27355427552704 L -19.772143712515646 12.742277396488213 L -19.772143712515646 12.742277396488213 L -19.953360886413854 11.580758413804565 M -22.28387838717098 11.712829948993166 L -23.25426203564789 11.95439893452036 L -23.25426203564789 11.95439893452036 L -23.53024898165336 12.91556031828199 L -23.53024898165336 12.91556031828199 L -22.83585227918192 13.635152716516428 L -22.83585227918192 13.635152716516428 L -21.86546863070501 13.393583730989235 L -21.86546863070501 13.393583730989235 L -21.58948168469954 12.432422347227604 L -21.58948168469954 12.432422347227604 L -22.28387838717098 11.712829948993168 M -25.29962407699926 12.026532147190073 L -23.736609957022875 12.772847670782097 L -23.736609957022875 12.772847670782097 L -23.87178881434169 11.046079974612754 L -23.87178881434169 11.046079974612754 L -25.29962407699926 12.026532147190075 M -26.827720216578474 13.025832742410682 L -25.751226795770396 13.498196930518786 L -25.751226795770396 13.498196930518786 L -24.969326995243197 12.62035940956993 L -24.969326995243197 12.62035940956993 L -25.562579763528703 11.605461796915487 L -25.562579763528703 11.605461796915487 L -26.711129938776313 11.85605809814277 L -26.711129938776313 11.85605809814277 L -26.827720216578474 13.025832742410682 M -28.128540455873807 13.603766339201494 L -26.583059859614345 12.82178825345644 L -26.583059859614345 12.82178825345644 L -28.03301304520202 11.874351838912352 L -28.03301304520202 11.874351838912352 L -28.128540455873807 13.603766339201494 M -30.555586035716892 12.32928587661694 L -29.947292964509145 13.122998380941171 L -29.947292964509145 13.122998380941171 L -28.955771236859118 12.993057380491319 L -28.955771236859118 12.993057380491319 L -28.572542580416844 12.069403875717235 L -28.572542580416844 12.069403875717235 L -29.180835651624594 11.275691371393004 L -29.180835651624594 11.275691371393004 L -30.17235737927462 11.405632371842856 L -30.17235737927462 11.405632371842856 L -30.555586035716892 12.32928587661694 M -0.5798945680477567 13.026299876320591 L -1.5333522033420042 14.472300753809641 L -1.5333522033420042 14.472300753809641 L 0.19565010810522643 14.575018848662173 L 0.19565010810522643 14.575018848662173 L -0.5798945680477573 13.026299876320591 M -1.6146340265476107 15.022982788172984 L -1.4051136069623529 14.045178516461709 L -1.4051136069623529 14.045178516461709 L -2.14715673640063 13.374826374633663 L -2.14715673640063 13.374826374633663 L -3.0987202854241653 13.682278504516892 L -3.0987202854241653 13.682278504516892 L -3.3082407050094225 14.660082776228167 L -3.3082407050094225 14.660082776228167 L -2.5661975755711453 15.330434918056213 L -2.5661975755711453 15.330434918056213 L -1.6146340265476107 15.022982788172982 M -4.262934079555601 15.060820636764367 L -3.23961927118884 14.482207800554 L -3.23961927118884 14.482207800554 L -3.4736911130978574 13.330176384282975 L -3.4736911130978574 13.330176384282975 L -4.641670275573683 13.196794649130169 L -4.641670275573683 13.196794649130169 L -5.129449254226362 14.266391619598323 L -5.129449254226362 14.266391619598323 L -4.262934079555602 15.060820636764367 M -4.602430259239312 13.152505934019395 L -5.772204859890004 13.035915218597374 L -5.772204859890004 13.035915218597374 L -6.244569450720863 14.112408462691038 L -6.244569450720863 14.112408462691038 L -5.366732222285578 14.89430859162258 L -5.366732222285578 14.89430859162258 L -4.351834387691708 14.301056203016536 L -4.351834387691708 14.301056203016536 L -4.602430259239312 13.152505934019397 M -7.781107045539538 15.134454475028816 L -6.609265872185361 15.040890188669055 L -6.609265872185361 15.040890188669055 L -6.336131959145597 13.897490050135877 L -6.336131959145597 13.897490050135877 L -7.339167090760942 13.284394188140794 L -7.339167090760942 13.284394188140794 L -8.232210807049212 14.048880245599097 L -8.232210807049212 14.048880245599097 L -7.781107045539538 15.134454475028814 M -9.801214275062753 14.375219339314906 L -9.21908888458496 15.188318367577196 L -9.21908888458496 15.188318367577196 L -8.22386177507848 15.090732505366635 L -8.22386177507848 15.090732505366635 L -7.8107600560497925 14.180047614893786 L -7.8107600560497925 14.180047614893786 L -8.392885446527586 13.366948586631498 L -8.392885446527586 13.366948586631498 L -9.388112556034066 13.464534448842059 L -9.388112556034066 13.464534448842059 L -9.801214275062751 14.375219339314908 M -10.280454666652254 15.069704702136997 L -10.184077047594554 13.3403373743131 L -10.184077047594554 13.3403373743131 L -11.729941895493711 14.121555571764821 L -11.729941895493711 14.121555571764821 L -10.280454666652254 15.069704702136995 M -11.088229247497903 14.278376586795313 L -11.07754055842141 13.278433712464071 L -11.07754055842141 13.278433712464071 L -11.93817214538725 12.769205599025055 L -11.93817214538725 12.769205599025055 L -12.809492421429582 13.25992035991728 L -12.809492421429582 13.25992035991728 L -12.820181110506075 14.25986323424852 L -12.820181110506075 14.25986323424852 L -11.959549523540234 14.769091347687537 L -11.959549523540234 14.769091347687537 L -11.088229247497903 14.278376586795313 M -15.026093030661048 14.013596240656048 L -14.839419737131244 15.174250837309522 L -14.839419737131244 15.174250837309522 L -13.677886399719382 15.355375980045048 L -13.677886399719382 15.355375980045048 L -13.146692611662553 14.306662877819305 L -13.146692611662553 14.306662877819305 L -13.979930133442489 13.477397393460926 L -13.979930133442489 13.477397393460926 L -15.026093030661048 14.013596240656048 M -15.019131386404835 14.677838419177949 L -15.216865637557861 13.27751661119203 L -15.216865637557861 13.27751661119203 L -16.617187445543777 13.475250862345057 L -16.617187445543777 13.475250862345057 L -16.41945319439075 14.875572670330975 L -16.41945319439075 14.875572670330975 L -15.019131386404835 14.677838419177949 M -16.896917620611493 13.058814341043245 L -17.973511127635792 13.530950372164815 L -17.973511127635792 13.530950372164815 L -17.857168768364122 14.70074969969463 L -17.857168768364122 14.70074969969463 L -16.708671728978583 14.951589413003257 L -16.708671728978583 14.951589413003257 L -16.11520388193136 13.936817554026451 L -16.11520388193136 13.936817554026451 L -16.896917620611493 13.058814341043245 M -17.948559599527954 13.833641954034189 L -19.454972995248742 12.978821106608855 L -19.454972995248742 12.978821106608855 L -19.44206286694323 14.710823799616906 L -19.44206286694323 14.710823799616906 L -17.948559599527954 13.833641954034189 M -20.02262363459475 14.86806155663869 L -19.594861790274983 13.773079449116263 L -19.594861790274983 13.773079449116263 L -20.504065979420808 13.027885679892588 L -20.504065979420808 13.027885679892588 L -21.493746915346485 13.662312709830138 L -21.493746915346485 13.662312709830138 L -21.196199182620536 14.799603946936866 L -21.196199182620536 14.799603946936866 L -20.02262363459475 14.86806155663869 M -21.717621253186227 13.834195612061645 L -22.625438772011183 13.414830195611385 L -22.625438772011183 13.414830195611385 L -23.442528635538228 13.991340520689223 L -23.442528635538228 13.991340520689223 L -23.351800980240316 14.987216262217324 L -23.351800980240316 14.987216262217324 L -22.44398346141536 15.406581678667584 L -22.44398346141536 15.406581678667584 L -21.626893597888316 14.830071353589746 L -21.626893597888316 14.830071353589746 L -21.717621253186227 13.834195612061645 M -25.511821475177403 14.073194632604812 L -25.365205514508304 15.062388122310987 L -25.365205514508304 15.062388122310987 L -24.43523084283003 15.430011720624375 L -24.43523084283003 15.430011720624375 L -23.65187213182085 14.80844182923159 L -23.65187213182085 14.80844182923159 L -23.798488092489947 13.819248339525418 L -23.798488092489947 13.819248339525418 L -24.728462764168224 13.45162474121203 L -24.728462764168224 13.45162474121203 L -25.5118214751774 14.073194632604814 M -26.453240146138008 14.725683711438245 L -25.21610178934224 14.040491266832593 L -25.21610178934224 14.040491266832593 L -25.901294233947894 12.803352910036827 L -25.901294233947894 12.803352910036827 L -27.138432590743662 13.48854535464248 L -27.138432590743662 13.48854535464248 L -26.453240146138008 14.725683711438245 M -26.787046477062198 13.62601350565505 L -27.534899252982477 12.962148891785377 L -27.534899252982477 12.962148891785377 L -28.483749261227302 13.277876087088211 L -28.483749261227302 13.277876087088211 L -28.68474649355185 14.257467896260723 L -28.68474649355185 14.257467896260723 L -27.93689371763157 14.921332510130396 L -27.93689371763157 14.921332510130396 L -26.988043709386744 14.605605314827562 L -26.988043709386744 14.605605314827562 L -26.787046477062198 13.62601350565505 M -28.394772500032513 13.232750908184082 L -29.765044963185392 13.582541383647511 L -29.765044963185392 13.582541383647511 L -29.415254487721963 14.952813846800394 L -29.415254487721963 14.952813846800394 L -28.044982024569084 14.603023371336965 L -28.044982024569084 14.603023371336965 L -28.394772500032513 13.232750908184082 M -1.1061127495526557 15.161127070321653 L -0.7320014939237389 16.088510900465224 L -0.7320014939237389 16.088510900465224 L 0.2581920898539626 16.22821296432067 L 0.2581920898539626 16.22821296432067 L 0.8742744180027476 15.44053119803255 L 0.8742744180027476 15.44053119803255 L 0.5001631623738306 14.513147367888982 L 0.5001631623738306 14.513147367888982 L -0.4900304214038711 14.373445304033533 L -0.4900304214038711 14.373445304033533 L -1.106112749552655 15.161127070321655 M -2.0395574524969424 16.718922982389664 L -1.4654866549992533 15.900117315909293 L -1.4654866549992533 15.900117315909293 L -1.8875577641850598 14.993554588465315 L -1.8875577641850598 14.993554588465315 L -2.8836996708685554 14.905797527501711 L -2.8836996708685554 14.905797527501711 L -3.4577704683662445 15.724603193982084 L -3.4577704683662445 15.724603193982084 L -3.0356993591804375 16.63116592142606 L -3.0356993591804375 16.63116592142606 L -2.039557452496942 16.718922982389664 M -3.5666155910599917 17.076832184931263 L -2.8052917852017485 15.885032678876021 L -2.8052917852017485 15.885032678876021 L -3.997091291256991 15.12370887301778 L -3.997091291256991 15.12370887301778 L -4.758415097115234 16.315508379073023 L -4.758415097115234 16.315508379073023 L -3.5666155910599917 17.076832184931263 M -5.899813025281098 16.41023847222865 L -4.5729282178784105 15.920977082086393 L -4.5729282178784105 15.920977082086393 L -5.062189608020665 14.594092274683707 L -5.062189608020665 14.594092274683707 L -6.3890744154233525 15.08335366482596 L -6.3890744154233525 15.08335366482596 L -5.899813025281098 16.41023847222865 M -6.838099268396839 16.338559080145192 L -6.511290087725252 15.209328470092991 L -6.511290087725252 15.209328470092991 L -7.4842626270700805 14.549563020155679 L -7.4842626270700805 14.549563020155679 L -8.412401907177063 15.271036157543756 L -8.412401907177063 15.271036157543756 L -8.01305098923221 16.37669652835692 L -8.01305098923221 16.37669652835692 L -6.838099268396839 16.338559080145192 M -9.832341707201493 14.577713770094592 L -9.918956575052624 16.307597542105626 L -9.918956575052624 16.307597542105626 L -8.377525848971054 15.517666332004621 L -8.377525848971054 15.517666332004621 L -9.832341707201493 14.577713770094592 M -10.115269050378991 16.84442435074143 L -9.507033706516104 15.8384344016236 L -9.507033706516104 15.8384344016236 L -10.275831945118924 14.949100223953977 L -10.275831945118924 14.949100223953977 L -11.359210730929409 15.405451423915045 L -11.359210730929409 15.405451423915045 L -11.259977404648058 16.576826153967406 L -11.259977404648058 16.576826153967406 L -10.115269050378991 16.84442435074143 M -11.23050616042202 15.696169635137403 L -11.58617753504551 14.575694787350294 L -11.58617753504551 14.575694787350294 L -12.761720939549615 14.56771259610972 L -12.761720939549615 14.56771259610972 L -13.13257534416043 15.68325417840545 L -13.13257534416043 15.68325417840545 L -12.186232566583413 16.380678983368625 L -12.186232566583413 16.380678983368625 L -11.23050616042202 15.696169635137403 M -13.76151333933983 14.428501329639987 L -14.715970944907667 14.72684790524244 L -14.715970944907667 14.72684790524244 L -14.934824034087766 15.702605726300682 L -14.934824034087766 15.702605726300682 L -14.199219517700028 16.380016971756472 L -14.199219517700028 16.380016971756472 L -13.24476191213219 16.081670396154014 L -13.24476191213219 16.081670396154014 L -13.025908822952092 15.105912575095774 L -13.025908822952092 15.105912575095774 L -13.761513339339832 14.428501329639987 M -15.146875866985365 14.722399640495414 L -16.146640696329342 14.74408571913605 L -16.146640696329342 14.74408571913605 L -16.627742415990074 15.620750498478465 L -16.627742415990074 15.620750498478465 L -16.10907930630683 16.475729199180247 L -16.10907930630683 16.475729199180247 L -15.109314476962851 16.454043120539612 L -15.109314476962851 16.454043120539612 L -14.62821275730212 15.577378341197196 L -14.62821275730212 15.577378341197196 L -15.146875866985365 14.722399640495416 M -18.609220670752993 15.843061187027226 L -16.88418438169769 15.998784664519535 L -16.88418438169769 15.998784664519535 L -17.611842038751348 14.426997677001449 L -17.611842038751348 14.426997677001449 L -18.609220670752993 15.843061187027226 M -19.53011120820312 16.784418256671692 L -18.167502284334095 16.405872459452258 L -18.167502284334095 16.405872459452258 L -18.546048081553526 15.043263535583232 L -18.546048081553526 15.043263535583232 L -19.90865700542255 15.421809332802667 L -19.90865700542255 15.421809332802667 L -19.53011120820312 16.784418256671692 M -21.625253307917305 15.2648148261111 L -21.528207331721756 16.994144776844692 L -21.528207331721756 16.994144776844692 L -20.07908665095895 16.04543552075749 L -20.07908665095895 16.04543552075749 L -21.625253307917305 15.2648148261111 M -21.55560148529458 15.393297146457826 L -22.550523742027718 14.388245056734592 L -22.550523742027718 14.388245056734592 L -23.55557583175095 15.38316731346773 L -23.55557583175095 15.38316731346773 L -22.560653575017813 16.388219403190966 L -22.560653575017813 16.388219403190966 L -21.55560148529458 15.393297146457828 M -23.282390231107755 15.708915282555864 L -23.529244413628938 14.55955501535419 L -23.529244413628938 14.55955501535419 L -24.69863312285341 14.439155438991026 L -24.69863312285341 14.439155438991026 L -25.174500908693318 15.514104675769177 L -25.174500908693318 15.514104675769177 L -24.299214665269066 16.298859416641996 L -24.299214665269066 16.298859416641996 L -23.282390231107755 15.708915282555864 M -25.928217497929545 16.244923788640055 L -25.39512901267631 14.935031935512322 L -25.39512901267631 14.935031935512322 L -26.705020865804045 14.401943450259084 L -26.705020865804045 14.401943450259084 L -27.23810935105728 15.711835303386819 L -27.23810935105728 15.711835303386819 L -25.928217497929545 16.244923788640055 M -28.030439688350103 17.176595564132384 L -27.041685964705948 16.1654743676481 L -27.041685964705948 16.1654743676481 L -28.05280716119023 15.176720644003941 L -28.05280716119023 15.176720644003941 L -29.04156088483439 16.187841840488225 L -29.04156088483439 16.187841840488225 L -28.030439688350107 17.176595564132384 M -30.35496132863148 16.127764423692287 L -28.717614255974883 16.69264898151174 L -28.717614255974883 16.69264898151174 L -29.047083415025998 14.99222254286932 L -29.047083415025998 14.99222254286932 L -30.35496132863148 16.127764423692287 M -1.4102932696005905 17.277154850690128 L 0.11170103175943341 18.10391560606475 L 0.11170103175943341 18.10391560606475 L 0.06669969808585413 16.37244949898451 L 0.06669969808585413 16.37244949898451 L -1.4102932696005905 17.277154850690128 M -1.5689133341376769 17.55707599121735 L -1.5734731352166436 16.557086387164325 L -1.5734731352166436 16.557086387164325 L -2.4417694363863864 16.061040488708407 L -2.4417694363863864 16.061040488708407 L -3.3055059364771626 16.564984194305506 L -3.3055059364771626 16.564984194305506 L -3.300946135398195 17.56497379835853 L -3.300946135398195 17.56497379835853 L -2.432649834228452 18.061019696814448 L -2.432649834228452 18.061019696814448 L -1.5689133341376769 17.55707599121735 M -3.3238926355660356 18.076276364982714 L -3.481266963090206 16.911287381220884 L -3.481266963090206 16.911287381220884 L -4.637868669192261 16.70095786666831 L -4.637868669192261 16.70095786666831 L -5.195313507485277 17.73595606159938 L -5.195313507485277 17.73595606159938 L -4.383231658301495 18.58594963891415 L -4.383231658301495 18.58594963891415 L -3.323892635566036 18.076276364982714 M -6.163458217390474 17.59547085300752 L -4.43323609266921 17.515900763620632 L -4.43323609266921 17.515900763620632 L -5.367256873820285 16.057269494115577 L -5.367256873820285 16.057269494115577 L -6.163458217390473 17.59547085300752 M -8.511148547007297 17.42951783037395 L -7.387502671305096 18.28824942174429 L -7.387502671305096 18.28824942174429 L -6.5287710799347565 17.16460354604209 L -6.5287710799347565 17.16460354604209 L -7.652416955636955 16.30587195467175 L -7.652416955636955 16.30587195467175 L -8.511148547007297 17.42951783037395 M -8.54005986320293 18.051728710982445 L -8.214703096585373 16.922078771547103 L -8.214703096585373 16.922078771547103 L -9.188523262498073 16.263565069554602 L -9.188523262498073 16.263565069554602 L -10.115733990579741 16.986231159101063 L -10.115733990579741 16.986231159101063 L -9.714961569355047 18.091377066950248 L -9.714961569355047 18.091377066950248 L -8.54005986320293 18.051728710982445 M -9.813269072127442 17.269528400975137 L -11.542920781505257 17.178396824414637 L -11.542920781505257 17.178396824414637 L -10.757017187204669 18.721884932715252 L -10.757017187204669 18.721884932715252 L -9.813269072127442 17.269528400975137 M -11.377073127460235 17.22242032475934 L -13.089871361714238 17.479951310732627 L -13.089871361714238 17.479951310732627 L -12.01044386847272 18.83451260016708 L -12.01044386847272 18.83451260016708 L -11.377073127460235 17.22242032475934 M -13.944745760023933 18.763909588832522 L -13.395213948486344 17.928436795673935 L -13.395213948486344 17.928436795673935 L -13.84398870576363 17.034791890115404 L -13.84398870576363 17.034791890115404 L -14.842295274578506 16.976619777715467 L -14.842295274578506 16.976619777715467 L -15.391827086116095 17.812092570874054 L -15.391827086116095 17.812092570874054 L -14.943052328838808 18.705737476432585 L -14.943052328838808 18.705737476432585 L -13.944745760023933 18.763909588832522 M -16.615687520172575 16.81586339149218 L -16.323460309764517 18.52308430792248 L -16.323460309764517 18.52308430792248 L -14.991077231467754 17.41639766181689 L -14.991077231467754 17.41639766181689 L -16.615687520172575 16.81586339149218 M -17.135413031481935 18.301252115560423 L -16.320085545276793 16.77310255146717 L -16.320085545276793 16.77310255146717 L -18.051165631666237 16.831083018056436 L -18.051165631666237 16.831083018056436 L -17.135413031481935 18.301252115560423 M -18.994142537744143 16.973899950561968 L -20.466820455820542 17.885612487280728 L -20.466820455820542 17.885612487280728 L -18.940915279035142 18.70513270756789 L -18.940915279035142 18.70513270756789 L -18.994142537744143 16.973899950561968 M -20.219938996948134 17.781985562510116 L -20.957130517722547 16.866281094382753 L -20.957130517722547 16.866281094382753 L -22.055821927164068 17.28442365149637 L -22.055821927164068 17.28442365149637 L -21.997659040572042 18.458554432062733 L -21.997659040572042 18.458554432062733 L -20.863020990332842 18.76606460457658 L -20.863020990332842 18.76606460457658 L -20.219938996948134 17.781985562510116 M -21.751384779486248 17.792963899956767 L -22.96669637280055 16.55885785461226 L -22.96669637280055 16.55885785461226 L -23.42780776237569 18.228401590608442 L -23.42780776237569 18.228401590608442 L -21.751384779486248 17.792963899956767 M -24.704818862850715 18.69498622391407 L -23.525237063089527 17.426685479740136 L -23.525237063089527 17.426685479740136 L -25.213408627063455 17.039288047392144 L -25.213408627063455 17.039288047392144 L -24.704818862850715 18.69498622391407 M -25.275172497364604 17.437478353776058 L -25.66399245325494 16.516164595113224 L -25.66399245325494 16.516164595113224 L -26.656283551058248 16.392235675081185 L -26.656283551058248 16.392235675081185 L -27.259754692971217 17.18962051371198 L -27.259754692971217 17.18962051371198 L -26.87093473708088 18.110934272374813 L -26.87093473708088 18.110934272374813 L -25.878643639277573 18.234863192406852 L -25.878643639277573 18.234863192406852 L -25.275172497364604 17.437478353776054 M -28.892194787739854 18.026457157927062 L -28.061120238188035 18.857890320807485 L -28.061120238188035 18.857890320807485 L -27.0135641513627 18.324418431946135 L -27.0135641513627 18.324418431946135 L -27.197213434134625 17.16328150970679 L -27.197213434134625 17.16328150970679 L -28.35827101972255 16.97913131503178 L -28.35827101972255 16.97913131503178 L -28.892194787739854 18.02645715792706 M -30.491359720442805 17.417560381631173 L -29.209540844870684 18.01500524957049 L -29.209540844870684 18.01500524957049 L -28.612095976931368 16.733186373998368 L -28.612095976931368 16.733186373998368 L -29.89391485250349 16.135741506059052 L -29.89391485250349 16.135741506059052 L -30.491359720442805 17.417560381631173 M 0.4851216181909064 19.08080819780749 L -1.1729157134926205 18.579896821670182 L -1.1729157134926205 18.579896821670182 L -0.7776990244303866 20.266254959399735 L -0.7776990244303866 20.266254959399735 L 0.48512161819090616 19.08080819780749 M -3.304832536170859 18.69627679193213 L -2.63737479751303 19.663988618022874 L -2.63737479751303 19.663988618022874 L -1.510770375141204 19.32823798624037 L -1.510770375141204 19.32823798624037 L -1.4819482888973026 18.153020857963792 L -1.4819482888973026 18.153020857963792 L -2.5907396823437163 17.762447360310322 L -2.5907396823437163 17.762447360310322 L -3.304832536170859 18.69627679193213 M -5.207215280179064 19.02358725480028 L -4.454510442184283 20.22084889156112 L -4.454510442184283 20.22084889156112 L -3.257248805423441 19.468144053566338 L -3.257248805423441 19.468144053566338 L -4.009953643418221 18.2708824168055 L -4.009953643418221 18.2708824168055 L -5.207215280179064 19.02358725480028 M -6.300460875826758 19.0312608923683 L -5.025890372996939 19.64401698847518 L -5.025890372996939 19.64401698847518 L -4.413134276890059 18.369446485645362 L -4.413134276890059 18.369446485645362 L -5.687704779719878 17.756690389538484 L -5.687704779719878 17.756690389538484 L -6.300460875826758 19.0312608923683 M -7.492203183939381 19.730770162738665 L -5.83471385141786 19.228048457838863 L -5.83471385141786 19.228048457838863 L -7.098828285155671 18.043981441823412 L -7.098828285155671 18.043981441823412 L -7.49220318393938 19.730770162738665 M -7.684769128768421 19.548111558944797 L -8.004254195911745 18.60052024837234 L -8.004254195911745 18.60052024837234 L -8.984634876844543 18.403406777362008 L -8.984634876844543 18.403406777362008 L -9.645530490634018 19.15388461692413 L -9.645530490634018 19.15388461692413 L -9.326045423490694 20.101475927496587 L -9.326045423490694 20.101475927496587 L -8.345664742557895 20.29858939850692 L -8.345664742557895 20.29858939850692 L -7.684769128768422 19.548111558944797 M -10.346968836921132 19.933772214150384 L -10.246866512431744 18.20461648818704 L -10.246866512431744 18.20461648818704 L -11.794410460460018 18.98250319518303 L -11.794410460460018 18.98250319518303 L -10.34696883692113 19.933772214150384 M -11.484082301320885 18.18344506638464 L -12.479214924256613 18.08490034167014 L -12.479214924256613 18.08490034167014 L -13.06212347073618 18.89743811090987 L -13.06212347073618 18.89743811090987 L -12.64989939428002 19.808520604864103 L -12.64989939428002 19.808520604864103 L -11.654766771344292 19.907065329578604 L -11.654766771344292 19.907065329578604 L -11.071858224864725 19.09452756033887 L -11.071858224864725 19.09452756033887 L -11.484082301320885 18.18344506638464 M -13.375069021089473 19.364845672643902 L -14.0075289639056 17.752395853042366 L -14.0075289639056 17.752395853042366 L -15.0877214986001 19.10634714019795 L -15.0877214986001 19.10634714019795 L -13.375069021089473 19.364845672643902 M -14.925959315279567 18.769021098656506 L -15.769321993711213 17.950055040825838 L -15.769321993711213 17.950055040825838 L -16.808818399692576 18.499066182062457 L -16.808818399692576 18.499066182062457 L -16.60789983134077 19.657339785379722 L -16.60789983134077 19.657339785379722 L -15.444228921147024 19.82418109926499 L -15.444228921147024 19.82418109926499 L -14.925959315279567 18.769021098656506 M -18.41950961330101 18.96394958611607 L -16.941836079232274 19.867542927566085 L -16.941836079232274 19.867542927566085 L -16.898138057880463 18.13604343783762 L -16.898138057880463 18.13604343783762 L -18.41950961330101 18.96394958611607 M -19.515980693460982 20.378472715045366 L -18.517557019205086 19.757895420959077 L -18.517557019205086 19.757895420959077 L -18.799231215679317 18.616569149338773 L -18.799231215679317 18.616569149338773 L -19.971739117110104 18.531768015310522 L -19.971739117110104 18.531768015310522 L -20.414714655797912 19.62068430381683 L -20.414714655797912 19.62068430381683 L -19.515980693460982 20.378472715045366 M -19.742138576996783 19.62707329505971 L -20.043654088610538 18.490827543689697 L -20.043654088610538 18.490827543689697 L -21.217461431719975 18.42646658881436 L -21.217461431719975 18.42646658881436 L -21.641398754392068 19.522935082523013 L -21.641398754392068 19.522935082523013 L -20.72959908579361 20.2649508341037 L -20.72959908579361 20.2649508341037 L -19.742138576996783 19.62707329505971 M -21.997697555049342 18.02578813119791 L -22.989286670327125 18.15521388776367 L -22.989286670327125 18.15521388776367 L -23.372995234876054 19.078668129993247 L -23.372995234876054 19.078668129993247 L -22.765114684147193 19.872696615657066 L -22.765114684147193 19.872696615657066 L -21.77352556886941 19.743270859091307 L -21.77352556886941 19.743270859091307 L -21.38981700432048 18.81981661686173 L -21.38981700432048 18.81981661686173 L -21.997697555049342 18.02578813119791 M -24.437092224620407 20.292905964654864 L -23.288925793457835 20.0405572820716 L -23.288925793457835 20.0405572820716 L -23.174120712807078 18.870606084496725 L -23.174120712807078 18.870606084496725 L -24.25133370204631 18.399885161800075 L -24.25133370204631 18.399885161800075 L -25.031893023169786 19.278914829932706 L -25.031893023169786 19.278914829932706 L -24.437092224620407 20.292905964654864 M -26.56990556091686 18.404311286418846 L -27.28627602273903 19.336394637133143 L -27.28627602273903 19.336394637133143 L -26.62118272528326 20.30573302847515 L -26.62118272528326 20.30573302847515 L -25.493761999943676 19.97273375021036 L -25.493761999943676 19.97273375021036 L -25.462070969518525 18.797590486671528 L -25.462070969518525 18.797590486671528 L -26.569905560916858 18.404311286418846 M -27.994408766088984 18.258735981351958 L -28.212106083308544 19.41397357134179 L -28.212106083308544 19.41397357134179 L -27.180682016130287 19.97800407131104 L -27.180682016130287 19.97800407131104 L -26.325529568579906 19.171356500993806 L -26.325529568579906 19.171356500993806 L -26.828440357609367 18.10879038562598 L -26.828440357609367 18.10879038562598 L -27.994408766088984 18.258735981351958 M -30.523266095798935 18.886524903663492 L -30.178359652789382 19.825161971741725 L -30.178359652789382 19.825161971741725 L -29.193022885395113 19.99578276420564 L -29.193022885395113 19.99578276420564 L -28.552592561010396 19.22776648859132 L -28.552592561010396 19.22776648859132 L -28.89749900401995 18.28912942051309 L -28.89749900401995 18.28912942051309 L -29.882835771414218 18.118508628049174 L -29.882835771414218 18.118508628049174 L -30.523266095798935 18.886524903663496" /></g></svg>